<?xml version="1.0" encoding="UTF-8" standalone="no"?>
<!DOCTYPE svg PUBLIC "-//W3C//DTD SVG 1.1//EN" "http://www.w3.org/Graphics/SVG/1.1/DTD/svg11.dtd">
<svg width="100%" height="100%" viewBox="0 0 1056 1047" version="1.1" xmlns="http://www.w3.org/2000/svg" xmlns:xlink="http://www.w3.org/1999/xlink" xml:space="preserve" xmlns:serif="http://www.serif.com/" style="fill-rule:evenodd;clip-rule:evenodd;stroke-linecap:round;stroke-linejoin:round;stroke-miterlimit:1.5;">
    <g id="Gears-1" serif:id="Gears 1">
        <g id="Blue-gear" serif:id="Blue gear" transform="matrix(1.140786,0.150966,-0.150966,1.140786,-382.759346,323.240728)">
            <path d="M810.057,202.513C810.072,204.779 810.471,208.091 809.031,219.452C808.628,222.631 807.31,222.732 804.512,223.539C802.328,224.169 798.777,224.626 796.441,225.29C787.723,227.77 787.131,226.895 786.347,228.397C785.558,229.907 784.261,235.69 781.966,240.713C781.569,241.58 780.558,244.294 779.798,245.657C776.489,251.592 776.622,251.943 777.365,253.568C778.272,255.55 787.369,269.348 787.631,270.461C787.806,271.205 788.079,272.362 782.567,278.56C773.533,288.716 765.79,294.451 764.511,294.584C762.482,294.795 756.544,290.3 751.485,287.525C749.565,286.472 745.775,283.21 743.684,283.986C742.874,284.287 733.47,289.996 722.412,293.186C719.537,294.015 719.944,295.222 719.134,299.431C717.895,305.868 717.399,305.744 716.131,312.434C715.25,317.085 713.747,316.509 703.485,317.317C696.015,317.905 696.024,317.661 688.538,317.059C680.694,316.428 681.031,315.319 680.968,315.211C680.652,314.669 680.749,314.63 679.134,307.59C676.317,295.308 677.248,294.35 674.545,293.37C670.521,291.911 670.467,292.115 666.462,290.6C658.831,287.712 652.814,283.459 651.499,283.485C651.074,283.493 650.901,283.496 646.79,285.965C646.275,286.274 641.869,289.138 641.442,289.416C632.966,294.926 632.352,294.785 631.477,294.584C629.809,294.2 615.389,281.497 609.567,273.45C607.689,270.854 608.723,270.09 611.13,266.267C619.067,253.662 619.757,252.955 619.555,251.493C619.496,251.067 619.434,250.62 617.186,246.672C615.747,244.145 611.743,233.863 610.809,230.426C609.944,227.238 609.229,227.492 603.558,226.245C599.037,225.25 599.091,225.117 594.571,224.139C588.447,222.813 587.52,222.341 587.093,217.557C586.095,206.372 586.097,206.369 586.856,195.532C587.328,188.776 588.479,188.531 592.534,187.65C598.012,186.461 597.922,186.132 603.407,185.009C609.56,183.749 610.072,183.334 610.625,181.538C611.554,178.519 611.556,178.539 612.603,175.539C613.174,173.906 612.997,173.248 616.673,165.581C618.805,161.132 620.573,160.028 618.955,157.257C616.899,153.736 614.347,150.294 613.425,148.539C612.066,145.951 611.762,146.155 610.315,143.606C608.627,140.633 607.207,139.913 611.189,135.248C611.387,135.015 618.518,126.095 628.295,118.228C631.314,115.799 631.698,115.914 633.752,117.041C637.084,118.87 637.089,118.814 640.349,120.773C648.182,125.478 648.098,125.601 648.779,126.009C648.978,126.128 650.524,127.055 651.489,127.034C653.122,126.999 658.785,122.952 666.435,120.332C669.897,119.146 669.832,118.988 673.352,118.001C677.932,116.717 676.182,114.943 678.6,105.526C680.893,96.597 679.908,95.371 683.468,94.38C685.383,93.847 695.424,92.989 702.506,93.383C713.76,94.01 715.071,94.465 715.902,97.386C716.113,98.126 717.141,103.467 718.433,108.517C720.212,115.475 719.221,116.979 722.415,117.796C734.131,120.793 742.977,126.565 744.393,126.911C746.424,127.408 746.324,126.584 757.218,120.07C758.783,119.134 758.719,119.052 760.318,118.173C763.766,116.277 764.224,115.278 767.322,117.731C769.606,119.539 776.139,124.279 785.443,135.546C787.821,138.426 787.885,139.072 787.921,139.44C788.064,140.882 785.712,144.189 783.63,147.58C781.872,150.443 781.761,150.356 780.079,153.246C779.042,155.029 778.879,154.9 777.841,156.695C776.224,159.493 776.805,159.739 778.25,162.625C779.722,165.565 781.975,169.437 785.361,179.542C786.287,182.307 785.984,183.236 788.373,183.911C793.869,185.465 793.958,185.058 799.447,186.67C803.131,187.752 807.934,187.697 808.768,190.417C808.802,190.525 809.716,196.192 809.82,197.47C809.846,197.787 810.039,202.11 810.057,202.513Z" style="fill:rgb(37,36,33);"/>
            <path d="M806.941,204.499C806.857,211.008 806.923,211.002 806.061,217.437C805.581,221.016 804.015,219.787 795.42,222.212C786.062,224.851 784.007,224.196 783.271,226.417C782.292,229.374 781.873,235.093 774.226,249.345C772.779,252.044 772.71,252.325 774.195,254.706C776.324,258.122 776.323,258.106 778.407,261.559C778.583,261.852 782.391,267.823 782.739,268.367C784.736,271.499 784.071,272.08 779.851,276.804C773.936,283.427 765.993,290.522 764.573,290.816C762.804,291.181 760.222,289.079 758.24,287.926C757.623,287.568 754.018,285.471 750.667,283.227C745.668,279.88 745.101,279.931 744.549,279.981C743.045,280.116 736.357,284.976 727.381,288.131C723.943,289.34 723.991,289.421 720.463,290.353C715.936,291.55 717.58,293.436 715.58,300.527C712.999,309.681 713.602,312.751 711.462,313.387C707.502,314.564 685.857,314.725 684.038,312.951C683.204,312.138 682.654,308.116 681.728,304.439C679.927,297.282 680.079,291.927 677.367,290.82C676.596,290.505 676.525,290.726 667.477,287.575C662.688,285.908 653.243,280.289 652.651,280.11C651.187,279.67 651.046,279.777 645.761,282.901C645.643,282.971 640.85,286.11 640.424,286.39C633.716,290.783 633.236,290.806 632.51,290.842C630.937,290.919 629.165,288.779 628.109,287.947C626.819,286.93 620.381,281.856 613.59,273.423C612.071,271.535 611.791,271.088 614.223,267.333C614.887,266.308 620.938,256.963 622.388,254.435C624.426,250.881 622.452,250.765 618.796,242.39C617.336,239.043 617.236,239.105 616.088,235.638C614.892,232.029 614.535,232.151 613.708,228.449C612.833,224.537 611.917,224.825 605.536,223.364C600.537,222.219 600.607,222.009 595.591,221.024C591.649,220.249 590.616,220.53 590.185,216.537C589.429,209.536 589.021,192.801 591.439,191.425C593.515,190.243 609.134,187.425 611.399,186.275C613.892,185.01 612.911,184.207 615.411,177.462C616.739,173.88 616.417,173.766 618.163,170.35C619.705,167.335 619.456,167.231 621.133,164.28C623.696,159.769 623.541,159.003 623.443,158.516C623.111,156.875 612.895,142.343 612.441,140.517C612.198,139.541 611.651,138.931 621.151,129.187C627.199,122.984 630.774,120.444 631.441,120.303C632.328,120.115 633.107,119.949 641.588,125.367C650.478,131.046 650.553,131.079 651.46,131.009C652.558,130.924 659.899,126.084 666.575,123.747C670.484,122.378 670.4,122.159 674.391,121.068C679.068,119.789 679.228,119.212 680.111,114.44C681.507,106.897 681.615,106.935 683.315,99.448C683.907,96.842 685.41,97.078 693.511,96.724C699.702,96.454 710.565,96.56 712.231,97.848C713.255,98.639 712.752,98.946 715.603,110.474C717.027,116.229 715.841,119.392 720.444,120.707C723.933,121.703 723.972,121.55 727.354,122.866C732.292,124.788 732.416,124.481 742.377,129.714C744.773,130.974 744.988,131.63 747.3,130.187C761.468,121.341 763.274,119.476 765.501,120.498C765.933,120.696 773.486,126.701 779.46,133.532C783.533,138.19 783.652,138.871 783.752,139.447C784.192,141.972 779.352,147.581 774.697,155.609C773.11,158.346 772.298,158.544 773.823,161.336C775.423,164.263 775.249,164.339 776.906,167.289C778.422,169.988 781.592,178.179 782.717,182.443C783.582,185.723 783.715,186.193 788.529,187.362C793.485,188.566 793.503,188.416 798.438,189.728C804.545,191.352 805.129,190.741 805.734,192.4C805.903,192.862 805.8,192.881 806.629,198.482C806.959,200.708 806.922,203.412 806.941,204.499Z" style="fill:rgb(101,140,155);"/>
            <path d="M740.103,195.599C740.656,197.743 743.963,210.205 736.76,224.62C727.24,243.674 710.653,247.325 704.513,248.569C696.667,250.158 688.838,247.796 687.534,247.403C685.849,246.895 675.407,244.664 666.411,234.574C665.7,233.777 662.752,230.903 658.891,223.283C658.136,221.792 656,215.005 655.872,214.42C654.563,208.41 654.762,199.46 656.476,194.492C657.747,190.807 658.484,186.482 664.453,178.461C668.286,173.31 676.808,167.14 682.451,165.342C683.245,165.089 689.96,161.762 701.5,162.501C702.962,162.595 705.607,162.296 715.366,165.894C716.883,166.453 726.972,171.174 733.379,180.58C738.475,188.061 739.065,191.61 740.103,195.599Z" style="fill:rgb(37,35,33);"/>
            <path d="M736.916,196.408C737.287,197.909 740.104,206.384 735.485,219.495C735.402,219.729 733.468,224.424 731.862,226.741C729.521,230.121 728.371,232.175 723.428,236.421C714.305,244.257 699.953,247.961 688.545,244.363C687.797,244.127 683.06,243.047 677.44,239.591C666.936,233.134 658.383,220.321 658.256,206.505C658.196,199.997 658.689,198.297 660.853,191.607C664.083,181.624 673.127,173.709 677.461,171.429C680.857,169.642 680.742,169.406 684.369,168.134C687.165,167.153 690.521,165.138 702.473,165.873C706.976,166.15 709.086,167.202 713.44,168.657C718.182,170.242 726.096,175.867 730.224,181.691C735.92,189.727 736.565,194.971 736.916,196.408Z" style="fill:rgb(253,253,252);"/>
        </g>
        <g id="Blue-gear1" serif:id="Blue gear" transform="matrix(1.140786,0.150966,-0.150966,1.140786,-382.759346,323.240728)">
            <path d="M810.057,202.513C810.072,204.779 810.471,208.091 809.031,219.452C808.628,222.631 807.31,222.732 804.512,223.539C802.328,224.169 798.777,224.626 796.441,225.29C787.723,227.77 787.131,226.895 786.347,228.397C785.558,229.907 784.261,235.69 781.966,240.713C781.569,241.58 780.558,244.294 779.798,245.657C776.489,251.592 776.622,251.943 777.365,253.568C778.272,255.55 787.369,269.348 787.631,270.461C787.806,271.205 788.079,272.362 782.567,278.56C773.533,288.716 765.79,294.451 764.511,294.584C762.482,294.795 756.544,290.3 751.485,287.525C749.565,286.472 745.775,283.21 743.684,283.986C742.874,284.287 733.47,289.996 722.412,293.186C719.537,294.015 719.944,295.222 719.134,299.431C717.895,305.868 717.399,305.744 716.131,312.434C715.25,317.085 713.747,316.509 703.485,317.317C696.015,317.905 696.024,317.661 688.538,317.059C680.694,316.428 681.031,315.319 680.968,315.211C680.652,314.669 680.749,314.63 679.134,307.59C676.317,295.308 677.248,294.35 674.545,293.37C670.521,291.911 670.467,292.115 666.462,290.6C658.831,287.712 652.814,283.459 651.499,283.485C651.074,283.493 650.901,283.496 646.79,285.965C646.275,286.274 641.869,289.138 641.442,289.416C632.966,294.926 632.352,294.785 631.477,294.584C629.809,294.2 615.389,281.497 609.567,273.45C607.689,270.854 608.723,270.09 611.13,266.267C619.067,253.662 619.757,252.955 619.555,251.493C619.496,251.067 619.434,250.62 617.186,246.672C615.747,244.145 611.743,233.863 610.809,230.426C609.944,227.238 609.229,227.492 603.558,226.245C599.037,225.25 599.091,225.117 594.571,224.139C588.447,222.813 587.52,222.341 587.093,217.557C586.095,206.372 586.097,206.369 586.856,195.532C587.328,188.776 588.479,188.531 592.534,187.65C598.012,186.461 597.922,186.132 603.407,185.009C609.56,183.749 610.072,183.334 610.625,181.538C611.554,178.519 611.556,178.539 612.603,175.539C613.174,173.906 612.997,173.248 616.673,165.581C618.805,161.132 620.573,160.028 618.955,157.257C616.899,153.736 614.347,150.294 613.425,148.539C612.066,145.951 611.762,146.155 610.315,143.606C608.627,140.633 607.207,139.913 611.189,135.248C611.387,135.015 618.518,126.095 628.295,118.228C631.314,115.799 631.698,115.914 633.752,117.041C637.084,118.87 637.089,118.814 640.349,120.773C648.182,125.478 648.098,125.601 648.779,126.009C648.978,126.128 650.524,127.055 651.489,127.034C653.122,126.999 658.785,122.952 666.435,120.332C669.897,119.146 669.832,118.988 673.352,118.001C677.932,116.717 676.182,114.943 678.6,105.526C680.893,96.597 679.908,95.371 683.468,94.38C685.383,93.847 695.424,92.989 702.506,93.383C713.76,94.01 715.071,94.465 715.902,97.386C716.113,98.126 717.141,103.467 718.433,108.517C720.212,115.475 719.221,116.979 722.415,117.796C734.131,120.793 742.977,126.565 744.393,126.911C746.424,127.408 746.324,126.584 757.218,120.07C758.783,119.134 758.719,119.052 760.318,118.173C763.766,116.277 764.224,115.278 767.322,117.731C769.606,119.539 776.139,124.279 785.443,135.546C787.821,138.426 787.885,139.072 787.921,139.44C788.064,140.882 785.712,144.189 783.63,147.58C781.872,150.443 781.761,150.356 780.079,153.246C779.042,155.029 778.879,154.9 777.841,156.695C776.224,159.493 776.805,159.739 778.25,162.625C779.722,165.565 781.975,169.437 785.361,179.542C786.287,182.307 785.984,183.236 788.373,183.911C793.869,185.465 793.958,185.058 799.447,186.67C803.131,187.752 807.934,187.697 808.768,190.417C808.802,190.525 809.716,196.192 809.82,197.47C809.846,197.787 810.039,202.11 810.057,202.513Z" style="fill:rgb(37,36,33);"/>
            <path d="M806.941,204.499C806.857,211.008 806.923,211.002 806.061,217.437C805.581,221.016 804.015,219.787 795.42,222.212C786.062,224.851 784.007,224.196 783.271,226.417C782.292,229.374 781.873,235.093 774.226,249.345C772.779,252.044 772.71,252.325 774.195,254.706C776.324,258.122 776.323,258.106 778.407,261.559C778.583,261.852 782.391,267.823 782.739,268.367C784.736,271.499 784.071,272.08 779.851,276.804C773.936,283.427 765.993,290.522 764.573,290.816C762.804,291.181 760.222,289.079 758.24,287.926C757.623,287.568 754.018,285.471 750.667,283.227C745.668,279.88 745.101,279.931 744.549,279.981C743.045,280.116 736.357,284.976 727.381,288.131C723.943,289.34 723.991,289.421 720.463,290.353C715.936,291.55 717.58,293.436 715.58,300.527C712.999,309.681 713.602,312.751 711.462,313.387C707.502,314.564 685.857,314.725 684.038,312.951C683.204,312.138 682.654,308.116 681.728,304.439C679.927,297.282 680.079,291.927 677.367,290.82C676.596,290.505 676.525,290.726 667.477,287.575C662.688,285.908 653.243,280.289 652.651,280.11C651.187,279.67 651.046,279.777 645.761,282.901C645.643,282.971 640.85,286.11 640.424,286.39C633.716,290.783 633.236,290.806 632.51,290.842C630.937,290.919 629.165,288.779 628.109,287.947C626.819,286.93 620.381,281.856 613.59,273.423C612.071,271.535 611.791,271.088 614.223,267.333C614.887,266.308 620.938,256.963 622.388,254.435C624.426,250.881 622.452,250.765 618.796,242.39C617.336,239.043 617.236,239.105 616.088,235.638C614.892,232.029 614.535,232.151 613.708,228.449C612.833,224.537 611.917,224.825 605.536,223.364C600.537,222.219 600.607,222.009 595.591,221.024C591.649,220.249 590.616,220.53 590.185,216.537C589.429,209.536 589.021,192.801 591.439,191.425C593.515,190.243 609.134,187.425 611.399,186.275C613.892,185.01 612.911,184.207 615.411,177.462C616.739,173.88 616.417,173.766 618.163,170.35C619.705,167.335 619.456,167.231 621.133,164.28C623.696,159.769 623.541,159.003 623.443,158.516C623.111,156.875 612.895,142.343 612.441,140.517C612.198,139.541 611.651,138.931 621.151,129.187C627.199,122.984 630.774,120.444 631.441,120.303C632.328,120.115 633.107,119.949 641.588,125.367C650.478,131.046 650.553,131.079 651.46,131.009C652.558,130.924 659.899,126.084 666.575,123.747C670.484,122.378 670.4,122.159 674.391,121.068C679.068,119.789 679.228,119.212 680.111,114.44C681.507,106.897 681.615,106.935 683.315,99.448C683.907,96.842 685.41,97.078 693.511,96.724C699.702,96.454 710.565,96.56 712.231,97.848C713.255,98.639 712.752,98.946 715.603,110.474C717.027,116.229 715.841,119.392 720.444,120.707C723.933,121.703 723.972,121.55 727.354,122.866C732.292,124.788 732.416,124.481 742.377,129.714C744.773,130.974 744.988,131.63 747.3,130.187C761.468,121.341 763.274,119.476 765.501,120.498C765.933,120.696 773.486,126.701 779.46,133.532C783.533,138.19 783.652,138.871 783.752,139.447C784.192,141.972 779.352,147.581 774.697,155.609C773.11,158.346 772.298,158.544 773.823,161.336C775.423,164.263 775.249,164.339 776.906,167.289C778.422,169.988 781.592,178.179 782.717,182.443C783.582,185.723 783.715,186.193 788.529,187.362C793.485,188.566 793.503,188.416 798.438,189.728C804.545,191.352 805.129,190.741 805.734,192.4C805.903,192.862 805.8,192.881 806.629,198.482C806.959,200.708 806.922,203.412 806.941,204.499Z" style="fill:rgb(101,140,155);"/>
            <path d="M740.103,195.599C740.656,197.743 743.963,210.205 736.76,224.62C727.24,243.674 710.653,247.325 704.513,248.569C696.667,250.158 688.838,247.796 687.534,247.403C685.849,246.895 675.407,244.664 666.411,234.574C665.7,233.777 662.752,230.903 658.891,223.283C658.136,221.792 656,215.005 655.872,214.42C654.563,208.41 654.762,199.46 656.476,194.492C657.747,190.807 658.484,186.482 664.453,178.461C668.286,173.31 676.808,167.14 682.451,165.342C683.245,165.089 689.96,161.762 701.5,162.501C702.962,162.595 705.607,162.296 715.366,165.894C716.883,166.453 726.972,171.174 733.379,180.58C738.475,188.061 739.065,191.61 740.103,195.599Z" style="fill:rgb(37,35,33);"/>
            <path d="M736.916,196.408C737.287,197.909 740.104,206.384 735.485,219.495C735.402,219.729 733.468,224.424 731.862,226.741C729.521,230.121 728.371,232.175 723.428,236.421C714.305,244.257 699.953,247.961 688.545,244.363C687.797,244.127 683.06,243.047 677.44,239.591C666.936,233.134 658.383,220.321 658.256,206.505C658.196,199.997 658.689,198.297 660.853,191.607C664.083,181.624 673.127,173.709 677.461,171.429C680.857,169.642 680.742,169.406 684.369,168.134C687.165,167.153 690.521,165.138 702.473,165.873C706.976,166.15 709.086,167.202 713.44,168.657C718.182,170.242 726.096,175.867 730.224,181.691C735.92,189.727 736.565,194.971 736.916,196.408Z" style="fill:rgb(253,253,252);"/>
        </g>
        <g id="Gray-gear" serif:id="Gray gear" transform="matrix(-0.919892,-0.309537,0.309537,-0.919892,1270.844805,1067.137473)">
            <path d="M810.057,202.513C810.072,204.779 810.471,208.091 809.031,219.452C808.628,222.631 807.31,222.732 804.512,223.539C802.328,224.169 798.777,224.626 796.441,225.29C787.723,227.77 787.131,226.895 786.347,228.397C785.558,229.907 784.261,235.69 781.966,240.713C781.569,241.58 780.558,244.294 779.798,245.657C776.489,251.592 776.622,251.943 777.365,253.568C778.272,255.55 787.369,269.348 787.631,270.461C787.806,271.205 788.079,272.362 782.567,278.56C773.533,288.716 765.79,294.451 764.511,294.584C762.482,294.795 756.544,290.3 751.485,287.525C749.565,286.472 745.775,283.21 743.684,283.986C742.874,284.287 733.47,289.996 722.412,293.186C719.537,294.015 719.944,295.222 719.134,299.431C717.895,305.868 717.399,305.744 716.131,312.434C715.25,317.085 713.747,316.509 703.485,317.317C696.015,317.905 696.024,317.661 688.538,317.059C680.694,316.428 681.031,315.319 680.968,315.211C680.652,314.669 680.749,314.63 679.134,307.59C676.317,295.308 677.248,294.35 674.545,293.37C670.521,291.911 670.467,292.115 666.462,290.6C658.831,287.712 652.814,283.459 651.499,283.485C651.074,283.493 650.901,283.496 646.79,285.965C646.275,286.274 641.869,289.138 641.442,289.416C632.966,294.926 632.352,294.785 631.477,294.584C629.809,294.2 615.389,281.497 609.567,273.45C607.689,270.854 608.723,270.09 611.13,266.267C619.067,253.662 619.757,252.955 619.555,251.493C619.496,251.067 619.434,250.62 617.186,246.672C615.747,244.145 611.743,233.863 610.809,230.426C609.944,227.238 609.229,227.492 603.558,226.245C599.037,225.25 599.091,225.117 594.571,224.139C588.447,222.813 587.52,222.341 587.093,217.557C586.095,206.372 586.097,206.369 586.856,195.532C587.328,188.776 588.479,188.531 592.534,187.65C598.012,186.461 597.922,186.132 603.407,185.009C609.56,183.749 610.072,183.334 610.625,181.538C611.554,178.519 611.556,178.539 612.603,175.539C613.174,173.906 612.997,173.248 616.673,165.581C618.805,161.132 620.573,160.028 618.955,157.257C616.899,153.736 614.347,150.294 613.425,148.539C612.066,145.951 611.762,146.155 610.315,143.606C608.627,140.633 607.207,139.913 611.189,135.248C611.387,135.015 618.518,126.095 628.295,118.228C631.314,115.799 631.698,115.914 633.752,117.041C637.084,118.87 637.089,118.814 640.349,120.773C648.182,125.478 648.098,125.601 648.779,126.009C648.978,126.128 650.524,127.055 651.489,127.034C653.122,126.999 658.785,122.952 666.435,120.332C669.897,119.146 669.832,118.988 673.352,118.001C677.932,116.717 676.182,114.943 678.6,105.526C680.893,96.597 679.908,95.371 683.468,94.38C685.383,93.847 695.424,92.989 702.506,93.383C713.76,94.01 715.071,94.465 715.902,97.386C716.113,98.126 717.141,103.467 718.433,108.517C720.212,115.475 719.221,116.979 722.415,117.796C734.131,120.793 742.977,126.565 744.393,126.911C746.424,127.408 746.324,126.584 757.218,120.07C758.783,119.134 758.719,119.052 760.318,118.173C763.766,116.277 764.224,115.278 767.322,117.731C769.606,119.539 776.139,124.279 785.443,135.546C787.821,138.426 787.885,139.072 787.921,139.44C788.064,140.882 785.712,144.189 783.63,147.58C781.872,150.443 781.761,150.356 780.079,153.246C779.042,155.029 778.879,154.9 777.841,156.695C776.224,159.493 776.805,159.739 778.25,162.625C779.722,165.565 781.975,169.437 785.361,179.542C786.287,182.307 785.984,183.236 788.373,183.911C793.869,185.465 793.958,185.058 799.447,186.67C803.131,187.752 807.934,187.697 808.768,190.417C808.802,190.525 809.716,196.192 809.82,197.47C809.846,197.787 810.039,202.11 810.057,202.513Z" style="fill:rgb(37,36,33);"/>
            <path d="M806.941,204.499C806.857,211.008 806.923,211.002 806.061,217.437C805.581,221.016 804.015,219.787 795.42,222.212C786.062,224.851 784.007,224.196 783.271,226.417C782.292,229.374 781.873,235.093 774.226,249.345C772.779,252.044 772.71,252.325 774.195,254.706C776.324,258.122 776.323,258.106 778.407,261.559C778.583,261.852 782.391,267.823 782.739,268.367C784.736,271.499 784.071,272.08 779.851,276.804C773.936,283.427 765.993,290.522 764.573,290.816C762.804,291.181 760.222,289.079 758.24,287.926C757.623,287.568 754.018,285.471 750.667,283.227C745.668,279.88 745.101,279.931 744.549,279.981C743.045,280.116 736.357,284.976 727.381,288.131C723.943,289.34 723.991,289.421 720.463,290.353C715.936,291.55 717.58,293.436 715.58,300.527C712.999,309.681 713.602,312.751 711.462,313.387C707.502,314.564 685.857,314.725 684.038,312.951C683.204,312.138 682.654,308.116 681.728,304.439C679.927,297.282 680.079,291.927 677.367,290.82C676.596,290.505 676.525,290.726 667.477,287.575C662.688,285.908 653.243,280.289 652.651,280.11C651.187,279.67 651.046,279.777 645.761,282.901C645.643,282.971 640.85,286.11 640.424,286.39C633.716,290.783 633.236,290.806 632.51,290.842C630.937,290.919 629.165,288.779 628.109,287.947C626.819,286.93 620.381,281.856 613.59,273.423C612.071,271.535 611.791,271.088 614.223,267.333C614.887,266.308 620.938,256.963 622.388,254.435C624.426,250.881 622.452,250.765 618.796,242.39C617.336,239.043 617.236,239.105 616.088,235.638C614.892,232.029 614.535,232.151 613.708,228.449C612.833,224.537 611.917,224.825 605.536,223.364C600.537,222.219 600.607,222.009 595.591,221.024C591.649,220.249 590.616,220.53 590.185,216.537C589.429,209.536 589.021,192.801 591.439,191.425C593.515,190.243 609.134,187.425 611.399,186.275C613.892,185.01 612.911,184.207 615.411,177.462C616.739,173.88 616.417,173.766 618.163,170.35C619.705,167.335 619.456,167.231 621.133,164.28C623.696,159.769 623.541,159.003 623.443,158.516C623.111,156.875 612.895,142.343 612.441,140.517C612.198,139.541 611.651,138.931 621.151,129.187C627.199,122.984 630.774,120.444 631.441,120.303C632.328,120.115 633.107,119.949 641.588,125.367C650.478,131.046 650.553,131.079 651.46,131.009C652.558,130.924 659.899,126.084 666.575,123.747C670.484,122.378 670.4,122.159 674.391,121.068C679.068,119.789 679.228,119.212 680.111,114.44C681.507,106.897 681.615,106.935 683.315,99.448C683.907,96.842 685.41,97.078 693.511,96.724C699.702,96.454 710.565,96.56 712.231,97.848C713.255,98.639 712.752,98.946 715.603,110.474C717.027,116.229 715.841,119.392 720.444,120.707C723.933,121.703 723.972,121.55 727.354,122.866C732.292,124.788 732.416,124.481 742.377,129.714C744.773,130.974 744.988,131.63 747.3,130.187C761.468,121.341 763.274,119.476 765.501,120.498C765.933,120.696 773.486,126.701 779.46,133.532C783.533,138.19 783.652,138.871 783.752,139.447C784.192,141.972 779.352,147.581 774.697,155.609C773.11,158.346 772.298,158.544 773.823,161.336C775.423,164.263 775.249,164.339 776.906,167.289C778.422,169.988 781.592,178.179 782.717,182.443C783.582,185.723 783.715,186.193 788.529,187.362C793.485,188.566 793.503,188.416 798.438,189.728C804.545,191.352 805.129,190.741 805.734,192.4C805.903,192.862 805.8,192.881 806.629,198.482C806.959,200.708 806.922,203.412 806.941,204.499Z" style="fill:rgb(148,152,135);"/>
            <path d="M740.103,195.599C740.656,197.743 743.963,210.205 736.76,224.62C727.24,243.674 710.653,247.325 704.513,248.569C696.667,250.158 688.838,247.796 687.534,247.403C685.849,246.895 675.407,244.664 666.411,234.574C665.7,233.777 662.752,230.903 658.891,223.283C658.136,221.792 656,215.005 655.872,214.42C654.563,208.41 654.762,199.46 656.476,194.492C657.747,190.807 658.484,186.482 664.453,178.461C668.286,173.31 676.808,167.14 682.451,165.342C683.245,165.089 689.96,161.762 701.5,162.501C702.962,162.595 705.607,162.296 715.366,165.894C716.883,166.453 726.972,171.174 733.379,180.58C738.475,188.061 739.065,191.61 740.103,195.599Z" style="fill:rgb(37,35,33);"/>
            <path d="M736.916,196.408C737.287,197.909 740.104,206.384 735.485,219.495C735.402,219.729 733.468,224.424 731.862,226.741C729.521,230.121 728.371,232.175 723.428,236.421C714.305,244.257 699.953,247.961 688.545,244.363C687.797,244.127 683.06,243.047 677.44,239.591C666.936,233.134 658.383,220.321 658.256,206.505C658.196,199.997 658.689,198.297 660.853,191.607C664.083,181.624 673.127,173.709 677.461,171.429C680.857,169.642 680.742,169.406 684.369,168.134C687.165,167.153 690.521,165.138 702.473,165.873C706.976,166.15 709.086,167.202 713.44,168.657C718.182,170.242 726.096,175.867 730.224,181.691C735.92,189.727 736.565,194.971 736.916,196.408Z" style="fill:rgb(253,253,252);"/>
        </g>
        <g id="Blue-gear2" serif:id="Blue gear" transform="matrix(0.178588,0.581329,-0.581329,0.178588,629.838826,-120.788907)">
            <path d="M810.057,202.513C810.072,204.779 810.471,208.091 809.031,219.452C808.628,222.631 807.31,222.732 804.512,223.539C802.328,224.169 798.777,224.626 796.441,225.29C787.723,227.77 787.131,226.895 786.347,228.397C785.558,229.907 784.261,235.69 781.966,240.713C781.569,241.58 780.558,244.294 779.798,245.657C776.489,251.592 776.622,251.943 777.365,253.568C778.272,255.55 787.369,269.348 787.631,270.461C787.806,271.205 788.079,272.362 782.567,278.56C773.533,288.716 765.79,294.451 764.511,294.584C762.482,294.795 756.544,290.3 751.485,287.525C749.565,286.472 745.775,283.21 743.684,283.986C742.874,284.287 733.47,289.996 722.412,293.186C719.537,294.015 719.944,295.222 719.134,299.431C717.895,305.868 717.399,305.744 716.131,312.434C715.25,317.085 713.747,316.509 703.485,317.317C696.015,317.905 696.024,317.661 688.538,317.059C680.694,316.428 681.031,315.319 680.968,315.211C680.652,314.669 680.749,314.63 679.134,307.59C676.317,295.308 677.248,294.35 674.545,293.37C670.521,291.911 670.467,292.115 666.462,290.6C658.831,287.712 652.814,283.459 651.499,283.485C651.074,283.493 650.901,283.496 646.79,285.965C646.275,286.274 641.869,289.138 641.442,289.416C632.966,294.926 632.352,294.785 631.477,294.584C629.809,294.2 615.389,281.497 609.567,273.45C607.689,270.854 608.723,270.09 611.13,266.267C619.067,253.662 619.757,252.955 619.555,251.493C619.496,251.067 619.434,250.62 617.186,246.672C615.747,244.145 611.743,233.863 610.809,230.426C609.944,227.238 609.229,227.492 603.558,226.245C599.037,225.25 599.091,225.117 594.571,224.139C588.447,222.813 587.52,222.341 587.093,217.557C586.095,206.372 586.097,206.369 586.856,195.532C587.328,188.776 588.479,188.531 592.534,187.65C598.012,186.461 597.922,186.132 603.407,185.009C609.56,183.749 610.072,183.334 610.625,181.538C611.554,178.519 611.556,178.539 612.603,175.539C613.174,173.906 612.997,173.248 616.673,165.581C618.805,161.132 620.573,160.028 618.955,157.257C616.899,153.736 614.347,150.294 613.425,148.539C612.066,145.951 611.762,146.155 610.315,143.606C608.627,140.633 607.207,139.913 611.189,135.248C611.387,135.015 618.518,126.095 628.295,118.228C631.314,115.799 631.698,115.914 633.752,117.041C637.084,118.87 637.089,118.814 640.349,120.773C648.182,125.478 648.098,125.601 648.779,126.009C648.978,126.128 650.524,127.055 651.489,127.034C653.122,126.999 658.785,122.952 666.435,120.332C669.897,119.146 669.832,118.988 673.352,118.001C677.932,116.717 676.182,114.943 678.6,105.526C680.893,96.597 679.908,95.371 683.468,94.38C685.383,93.847 695.424,92.989 702.506,93.383C713.76,94.01 715.071,94.465 715.902,97.386C716.113,98.126 717.141,103.467 718.433,108.517C720.212,115.475 719.221,116.979 722.415,117.796C734.131,120.793 742.977,126.565 744.393,126.911C746.424,127.408 746.324,126.584 757.218,120.07C758.783,119.134 758.719,119.052 760.318,118.173C763.766,116.277 764.224,115.278 767.322,117.731C769.606,119.539 776.139,124.279 785.443,135.546C787.821,138.426 787.885,139.072 787.921,139.44C788.064,140.882 785.712,144.189 783.63,147.58C781.872,150.443 781.761,150.356 780.079,153.246C779.042,155.029 778.879,154.9 777.841,156.695C776.224,159.493 776.805,159.739 778.25,162.625C779.722,165.565 781.975,169.437 785.361,179.542C786.287,182.307 785.984,183.236 788.373,183.911C793.869,185.465 793.958,185.058 799.447,186.67C803.131,187.752 807.934,187.697 808.768,190.417C808.802,190.525 809.716,196.192 809.82,197.47C809.846,197.787 810.039,202.11 810.057,202.513Z" style="fill:rgb(37,36,33);"/>
            <path d="M806.941,204.499C806.857,211.008 806.923,211.002 806.061,217.437C805.581,221.016 804.015,219.787 795.42,222.212C786.062,224.851 784.007,224.196 783.271,226.417C782.292,229.374 781.873,235.093 774.226,249.345C772.779,252.044 772.71,252.325 774.195,254.706C776.324,258.122 776.323,258.106 778.407,261.559C778.583,261.852 782.391,267.823 782.739,268.367C784.736,271.499 784.071,272.08 779.851,276.804C773.936,283.427 765.993,290.522 764.573,290.816C762.804,291.181 760.222,289.079 758.24,287.926C757.623,287.568 754.018,285.471 750.667,283.227C745.668,279.88 745.101,279.931 744.549,279.981C743.045,280.116 736.357,284.976 727.381,288.131C723.943,289.34 723.991,289.421 720.463,290.353C715.936,291.55 717.58,293.436 715.58,300.527C712.999,309.681 713.602,312.751 711.462,313.387C707.502,314.564 685.857,314.725 684.038,312.951C683.204,312.138 682.654,308.116 681.728,304.439C679.927,297.282 680.079,291.927 677.367,290.82C676.596,290.505 676.525,290.726 667.477,287.575C662.688,285.908 653.243,280.289 652.651,280.11C651.187,279.67 651.046,279.777 645.761,282.901C645.643,282.971 640.85,286.11 640.424,286.39C633.716,290.783 633.236,290.806 632.51,290.842C630.937,290.919 629.165,288.779 628.109,287.947C626.819,286.93 620.381,281.856 613.59,273.423C612.071,271.535 611.791,271.088 614.223,267.333C614.887,266.308 620.938,256.963 622.388,254.435C624.426,250.881 622.452,250.765 618.796,242.39C617.336,239.043 617.236,239.105 616.088,235.638C614.892,232.029 614.535,232.151 613.708,228.449C612.833,224.537 611.917,224.825 605.536,223.364C600.537,222.219 600.607,222.009 595.591,221.024C591.649,220.249 590.616,220.53 590.185,216.537C589.429,209.536 589.021,192.801 591.439,191.425C593.515,190.243 609.134,187.425 611.399,186.275C613.892,185.01 612.911,184.207 615.411,177.462C616.739,173.88 616.417,173.766 618.163,170.35C619.705,167.335 619.456,167.231 621.133,164.28C623.696,159.769 623.541,159.003 623.443,158.516C623.111,156.875 612.895,142.343 612.441,140.517C612.198,139.541 611.651,138.931 621.151,129.187C627.199,122.984 630.774,120.444 631.441,120.303C632.328,120.115 633.107,119.949 641.588,125.367C650.478,131.046 650.553,131.079 651.46,131.009C652.558,130.924 659.899,126.084 666.575,123.747C670.484,122.378 670.4,122.159 674.391,121.068C679.068,119.789 679.228,119.212 680.111,114.44C681.507,106.897 681.615,106.935 683.315,99.448C683.907,96.842 685.41,97.078 693.511,96.724C699.702,96.454 710.565,96.56 712.231,97.848C713.255,98.639 712.752,98.946 715.603,110.474C717.027,116.229 715.841,119.392 720.444,120.707C723.933,121.703 723.972,121.55 727.354,122.866C732.292,124.788 732.416,124.481 742.377,129.714C744.773,130.974 744.988,131.63 747.3,130.187C761.468,121.341 763.274,119.476 765.501,120.498C765.933,120.696 773.486,126.701 779.46,133.532C783.533,138.19 783.652,138.871 783.752,139.447C784.192,141.972 779.352,147.581 774.697,155.609C773.11,158.346 772.298,158.544 773.823,161.336C775.423,164.263 775.249,164.339 776.906,167.289C778.422,169.988 781.592,178.179 782.717,182.443C783.582,185.723 783.715,186.193 788.529,187.362C793.485,188.566 793.503,188.416 798.438,189.728C804.545,191.352 805.129,190.741 805.734,192.4C805.903,192.862 805.8,192.881 806.629,198.482C806.959,200.708 806.922,203.412 806.941,204.499Z" style="fill:rgb(101,140,155);"/>
            <path d="M740.103,195.599C740.656,197.743 743.963,210.205 736.76,224.62C727.24,243.674 710.653,247.325 704.513,248.569C696.667,250.158 688.838,247.796 687.534,247.403C685.849,246.895 675.407,244.664 666.411,234.574C665.7,233.777 662.752,230.903 658.891,223.283C658.136,221.792 656,215.005 655.872,214.42C654.563,208.41 654.762,199.46 656.476,194.492C657.747,190.807 658.484,186.482 664.453,178.461C668.286,173.31 676.808,167.14 682.451,165.342C683.245,165.089 689.96,161.762 701.5,162.501C702.962,162.595 705.607,162.296 715.366,165.894C716.883,166.453 726.972,171.174 733.379,180.58C738.475,188.061 739.065,191.61 740.103,195.599Z" style="fill:rgb(37,35,33);"/>
            <path d="M736.916,196.408C737.287,197.909 740.104,206.384 735.485,219.495C735.402,219.729 733.468,224.424 731.862,226.741C729.521,230.121 728.371,232.175 723.428,236.421C714.305,244.257 699.953,247.961 688.545,244.363C687.797,244.127 683.06,243.047 677.44,239.591C666.936,233.134 658.383,220.321 658.256,206.505C658.196,199.997 658.689,198.297 660.853,191.607C664.083,181.624 673.127,173.709 677.461,171.429C680.857,169.642 680.742,169.406 684.369,168.134C687.165,167.153 690.521,165.138 702.473,165.873C706.976,166.15 709.086,167.202 713.44,168.657C718.182,170.242 726.096,175.867 730.224,181.691C735.92,189.727 736.565,194.971 736.916,196.408Z" style="fill:rgb(253,253,252);"/>
        </g>
        <g id="Gray-gear1" serif:id="Gray gear" transform="matrix(0.643343,-0.155999,0.155999,0.643343,231.653043,381.753715)">
            <path d="M810.057,202.513C810.072,204.779 810.471,208.091 809.031,219.452C808.628,222.631 807.31,222.732 804.512,223.539C802.328,224.169 798.777,224.626 796.441,225.29C787.723,227.77 787.131,226.895 786.347,228.397C785.558,229.907 784.261,235.69 781.966,240.713C781.569,241.58 780.558,244.294 779.798,245.657C776.489,251.592 776.622,251.943 777.365,253.568C778.272,255.55 787.369,269.348 787.631,270.461C787.806,271.205 788.079,272.362 782.567,278.56C773.533,288.716 765.79,294.451 764.511,294.584C762.482,294.795 756.544,290.3 751.485,287.525C749.565,286.472 745.775,283.21 743.684,283.986C742.874,284.287 733.47,289.996 722.412,293.186C719.537,294.015 719.944,295.222 719.134,299.431C717.895,305.868 717.399,305.744 716.131,312.434C715.25,317.085 713.747,316.509 703.485,317.317C696.015,317.905 696.024,317.661 688.538,317.059C680.694,316.428 681.031,315.319 680.968,315.211C680.652,314.669 680.749,314.63 679.134,307.59C676.317,295.308 677.248,294.35 674.545,293.37C670.521,291.911 670.467,292.115 666.462,290.6C658.831,287.712 652.814,283.459 651.499,283.485C651.074,283.493 650.901,283.496 646.79,285.965C646.275,286.274 641.869,289.138 641.442,289.416C632.966,294.926 632.352,294.785 631.477,294.584C629.809,294.2 615.389,281.497 609.567,273.45C607.689,270.854 608.723,270.09 611.13,266.267C619.067,253.662 619.757,252.955 619.555,251.493C619.496,251.067 619.434,250.62 617.186,246.672C615.747,244.145 611.743,233.863 610.809,230.426C609.944,227.238 609.229,227.492 603.558,226.245C599.037,225.25 599.091,225.117 594.571,224.139C588.447,222.813 587.52,222.341 587.093,217.557C586.095,206.372 586.097,206.369 586.856,195.532C587.328,188.776 588.479,188.531 592.534,187.65C598.012,186.461 597.922,186.132 603.407,185.009C609.56,183.749 610.072,183.334 610.625,181.538C611.554,178.519 611.556,178.539 612.603,175.539C613.174,173.906 612.997,173.248 616.673,165.581C618.805,161.132 620.573,160.028 618.955,157.257C616.899,153.736 614.347,150.294 613.425,148.539C612.066,145.951 611.762,146.155 610.315,143.606C608.627,140.633 607.207,139.913 611.189,135.248C611.387,135.015 618.518,126.095 628.295,118.228C631.314,115.799 631.698,115.914 633.752,117.041C637.084,118.87 637.089,118.814 640.349,120.773C648.182,125.478 648.098,125.601 648.779,126.009C648.978,126.128 650.524,127.055 651.489,127.034C653.122,126.999 658.785,122.952 666.435,120.332C669.897,119.146 669.832,118.988 673.352,118.001C677.932,116.717 676.182,114.943 678.6,105.526C680.893,96.597 679.908,95.371 683.468,94.38C685.383,93.847 695.424,92.989 702.506,93.383C713.76,94.01 715.071,94.465 715.902,97.386C716.113,98.126 717.141,103.467 718.433,108.517C720.212,115.475 719.221,116.979 722.415,117.796C734.131,120.793 742.977,126.565 744.393,126.911C746.424,127.408 746.324,126.584 757.218,120.07C758.783,119.134 758.719,119.052 760.318,118.173C763.766,116.277 764.224,115.278 767.322,117.731C769.606,119.539 776.139,124.279 785.443,135.546C787.821,138.426 787.885,139.072 787.921,139.44C788.064,140.882 785.712,144.189 783.63,147.58C781.872,150.443 781.761,150.356 780.079,153.246C779.042,155.029 778.879,154.9 777.841,156.695C776.224,159.493 776.805,159.739 778.25,162.625C779.722,165.565 781.975,169.437 785.361,179.542C786.287,182.307 785.984,183.236 788.373,183.911C793.869,185.465 793.958,185.058 799.447,186.67C803.131,187.752 807.934,187.697 808.768,190.417C808.802,190.525 809.716,196.192 809.82,197.47C809.846,197.787 810.039,202.11 810.057,202.513Z" style="fill:rgb(37,36,33);"/>
            <path d="M806.941,204.499C806.857,211.008 806.923,211.002 806.061,217.437C805.581,221.016 804.015,219.787 795.42,222.212C786.062,224.851 784.007,224.196 783.271,226.417C782.292,229.374 781.873,235.093 774.226,249.345C772.779,252.044 772.71,252.325 774.195,254.706C776.324,258.122 776.323,258.106 778.407,261.559C778.583,261.852 782.391,267.823 782.739,268.367C784.736,271.499 784.071,272.08 779.851,276.804C773.936,283.427 765.993,290.522 764.573,290.816C762.804,291.181 760.222,289.079 758.24,287.926C757.623,287.568 754.018,285.471 750.667,283.227C745.668,279.88 745.101,279.931 744.549,279.981C743.045,280.116 736.357,284.976 727.381,288.131C723.943,289.34 723.991,289.421 720.463,290.353C715.936,291.55 717.58,293.436 715.58,300.527C712.999,309.681 713.602,312.751 711.462,313.387C707.502,314.564 685.857,314.725 684.038,312.951C683.204,312.138 682.654,308.116 681.728,304.439C679.927,297.282 680.079,291.927 677.367,290.82C676.596,290.505 676.525,290.726 667.477,287.575C662.688,285.908 653.243,280.289 652.651,280.11C651.187,279.67 651.046,279.777 645.761,282.901C645.643,282.971 640.85,286.11 640.424,286.39C633.716,290.783 633.236,290.806 632.51,290.842C630.937,290.919 629.165,288.779 628.109,287.947C626.819,286.93 620.381,281.856 613.59,273.423C612.071,271.535 611.791,271.088 614.223,267.333C614.887,266.308 620.938,256.963 622.388,254.435C624.426,250.881 622.452,250.765 618.796,242.39C617.336,239.043 617.236,239.105 616.088,235.638C614.892,232.029 614.535,232.151 613.708,228.449C612.833,224.537 611.917,224.825 605.536,223.364C600.537,222.219 600.607,222.009 595.591,221.024C591.649,220.249 590.616,220.53 590.185,216.537C589.429,209.536 589.021,192.801 591.439,191.425C593.515,190.243 609.134,187.425 611.399,186.275C613.892,185.01 612.911,184.207 615.411,177.462C616.739,173.88 616.417,173.766 618.163,170.35C619.705,167.335 619.456,167.231 621.133,164.28C623.696,159.769 623.541,159.003 623.443,158.516C623.111,156.875 612.895,142.343 612.441,140.517C612.198,139.541 611.651,138.931 621.151,129.187C627.199,122.984 630.774,120.444 631.441,120.303C632.328,120.115 633.107,119.949 641.588,125.367C650.478,131.046 650.553,131.079 651.46,131.009C652.558,130.924 659.899,126.084 666.575,123.747C670.484,122.378 670.4,122.159 674.391,121.068C679.068,119.789 679.228,119.212 680.111,114.44C681.507,106.897 681.615,106.935 683.315,99.448C683.907,96.842 685.41,97.078 693.511,96.724C699.702,96.454 710.565,96.56 712.231,97.848C713.255,98.639 712.752,98.946 715.603,110.474C717.027,116.229 715.841,119.392 720.444,120.707C723.933,121.703 723.972,121.55 727.354,122.866C732.292,124.788 732.416,124.481 742.377,129.714C744.773,130.974 744.988,131.63 747.3,130.187C761.468,121.341 763.274,119.476 765.501,120.498C765.933,120.696 773.486,126.701 779.46,133.532C783.533,138.19 783.652,138.871 783.752,139.447C784.192,141.972 779.352,147.581 774.697,155.609C773.11,158.346 772.298,158.544 773.823,161.336C775.423,164.263 775.249,164.339 776.906,167.289C778.422,169.988 781.592,178.179 782.717,182.443C783.582,185.723 783.715,186.193 788.529,187.362C793.485,188.566 793.503,188.416 798.438,189.728C804.545,191.352 805.129,190.741 805.734,192.4C805.903,192.862 805.8,192.881 806.629,198.482C806.959,200.708 806.922,203.412 806.941,204.499Z" style="fill:rgb(148,152,135);"/>
            <path d="M740.103,195.599C740.656,197.743 743.963,210.205 736.76,224.62C727.24,243.674 710.653,247.325 704.513,248.569C696.667,250.158 688.838,247.796 687.534,247.403C685.849,246.895 675.407,244.664 666.411,234.574C665.7,233.777 662.752,230.903 658.891,223.283C658.136,221.792 656,215.005 655.872,214.42C654.563,208.41 654.762,199.46 656.476,194.492C657.747,190.807 658.484,186.482 664.453,178.461C668.286,173.31 676.808,167.14 682.451,165.342C683.245,165.089 689.96,161.762 701.5,162.501C702.962,162.595 705.607,162.296 715.366,165.894C716.883,166.453 726.972,171.174 733.379,180.58C738.475,188.061 739.065,191.61 740.103,195.599Z" style="fill:rgb(37,35,33);"/>
            <path d="M736.916,196.408C737.287,197.909 740.104,206.384 735.485,219.495C735.402,219.729 733.468,224.424 731.862,226.741C729.521,230.121 728.371,232.175 723.428,236.421C714.305,244.257 699.953,247.961 688.545,244.363C687.797,244.127 683.06,243.047 677.44,239.591C666.936,233.134 658.383,220.321 658.256,206.505C658.196,199.997 658.689,198.297 660.853,191.607C664.083,181.624 673.127,173.709 677.461,171.429C680.857,169.642 680.742,169.406 684.369,168.134C687.165,167.153 690.521,165.138 702.473,165.873C706.976,166.15 709.086,167.202 713.44,168.657C718.182,170.242 726.096,175.867 730.224,181.691C735.92,189.727 736.565,194.971 736.916,196.408Z" style="fill:rgb(253,253,252);"/>
        </g>
        <g id="Gray-gear2" serif:id="Gray gear" transform="matrix(0.556068,-0.359186,0.359186,0.556068,-111.863646,544.022021)">
            <path d="M810.057,202.513C810.072,204.779 810.471,208.091 809.031,219.452C808.628,222.631 807.31,222.732 804.512,223.539C802.328,224.169 798.777,224.626 796.441,225.29C787.723,227.77 787.131,226.895 786.347,228.397C785.558,229.907 784.261,235.69 781.966,240.713C781.569,241.58 780.558,244.294 779.798,245.657C776.489,251.592 776.622,251.943 777.365,253.568C778.272,255.55 787.369,269.348 787.631,270.461C787.806,271.205 788.079,272.362 782.567,278.56C773.533,288.716 765.79,294.451 764.511,294.584C762.482,294.795 756.544,290.3 751.485,287.525C749.565,286.472 745.775,283.21 743.684,283.986C742.874,284.287 733.47,289.996 722.412,293.186C719.537,294.015 719.944,295.222 719.134,299.431C717.895,305.868 717.399,305.744 716.131,312.434C715.25,317.085 713.747,316.509 703.485,317.317C696.015,317.905 696.024,317.661 688.538,317.059C680.694,316.428 681.031,315.319 680.968,315.211C680.652,314.669 680.749,314.63 679.134,307.59C676.317,295.308 677.248,294.35 674.545,293.37C670.521,291.911 670.467,292.115 666.462,290.6C658.831,287.712 652.814,283.459 651.499,283.485C651.074,283.493 650.901,283.496 646.79,285.965C646.275,286.274 641.869,289.138 641.442,289.416C632.966,294.926 632.352,294.785 631.477,294.584C629.809,294.2 615.389,281.497 609.567,273.45C607.689,270.854 608.723,270.09 611.13,266.267C619.067,253.662 619.757,252.955 619.555,251.493C619.496,251.067 619.434,250.62 617.186,246.672C615.747,244.145 611.743,233.863 610.809,230.426C609.944,227.238 609.229,227.492 603.558,226.245C599.037,225.25 599.091,225.117 594.571,224.139C588.447,222.813 587.52,222.341 587.093,217.557C586.095,206.372 586.097,206.369 586.856,195.532C587.328,188.776 588.479,188.531 592.534,187.65C598.012,186.461 597.922,186.132 603.407,185.009C609.56,183.749 610.072,183.334 610.625,181.538C611.554,178.519 611.556,178.539 612.603,175.539C613.174,173.906 612.997,173.248 616.673,165.581C618.805,161.132 620.573,160.028 618.955,157.257C616.899,153.736 614.347,150.294 613.425,148.539C612.066,145.951 611.762,146.155 610.315,143.606C608.627,140.633 607.207,139.913 611.189,135.248C611.387,135.015 618.518,126.095 628.295,118.228C631.314,115.799 631.698,115.914 633.752,117.041C637.084,118.87 637.089,118.814 640.349,120.773C648.182,125.478 648.098,125.601 648.779,126.009C648.978,126.128 650.524,127.055 651.489,127.034C653.122,126.999 658.785,122.952 666.435,120.332C669.897,119.146 669.832,118.988 673.352,118.001C677.932,116.717 676.182,114.943 678.6,105.526C680.893,96.597 679.908,95.371 683.468,94.38C685.383,93.847 695.424,92.989 702.506,93.383C713.76,94.01 715.071,94.465 715.902,97.386C716.113,98.126 717.141,103.467 718.433,108.517C720.212,115.475 719.221,116.979 722.415,117.796C734.131,120.793 742.977,126.565 744.393,126.911C746.424,127.408 746.324,126.584 757.218,120.07C758.783,119.134 758.719,119.052 760.318,118.173C763.766,116.277 764.224,115.278 767.322,117.731C769.606,119.539 776.139,124.279 785.443,135.546C787.821,138.426 787.885,139.072 787.921,139.44C788.064,140.882 785.712,144.189 783.63,147.58C781.872,150.443 781.761,150.356 780.079,153.246C779.042,155.029 778.879,154.9 777.841,156.695C776.224,159.493 776.805,159.739 778.25,162.625C779.722,165.565 781.975,169.437 785.361,179.542C786.287,182.307 785.984,183.236 788.373,183.911C793.869,185.465 793.958,185.058 799.447,186.67C803.131,187.752 807.934,187.697 808.768,190.417C808.802,190.525 809.716,196.192 809.82,197.47C809.846,197.787 810.039,202.11 810.057,202.513Z" style="fill:rgb(37,36,33);"/>
            <path d="M806.941,204.499C806.857,211.008 806.923,211.002 806.061,217.437C805.581,221.016 804.015,219.787 795.42,222.212C786.062,224.851 784.007,224.196 783.271,226.417C782.292,229.374 781.873,235.093 774.226,249.345C772.779,252.044 772.71,252.325 774.195,254.706C776.324,258.122 776.323,258.106 778.407,261.559C778.583,261.852 782.391,267.823 782.739,268.367C784.736,271.499 784.071,272.08 779.851,276.804C773.936,283.427 765.993,290.522 764.573,290.816C762.804,291.181 760.222,289.079 758.24,287.926C757.623,287.568 754.018,285.471 750.667,283.227C745.668,279.88 745.101,279.931 744.549,279.981C743.045,280.116 736.357,284.976 727.381,288.131C723.943,289.34 723.991,289.421 720.463,290.353C715.936,291.55 717.58,293.436 715.58,300.527C712.999,309.681 713.602,312.751 711.462,313.387C707.502,314.564 685.857,314.725 684.038,312.951C683.204,312.138 682.654,308.116 681.728,304.439C679.927,297.282 680.079,291.927 677.367,290.82C676.596,290.505 676.525,290.726 667.477,287.575C662.688,285.908 653.243,280.289 652.651,280.11C651.187,279.67 651.046,279.777 645.761,282.901C645.643,282.971 640.85,286.11 640.424,286.39C633.716,290.783 633.236,290.806 632.51,290.842C630.937,290.919 629.165,288.779 628.109,287.947C626.819,286.93 620.381,281.856 613.59,273.423C612.071,271.535 611.791,271.088 614.223,267.333C614.887,266.308 620.938,256.963 622.388,254.435C624.426,250.881 622.452,250.765 618.796,242.39C617.336,239.043 617.236,239.105 616.088,235.638C614.892,232.029 614.535,232.151 613.708,228.449C612.833,224.537 611.917,224.825 605.536,223.364C600.537,222.219 600.607,222.009 595.591,221.024C591.649,220.249 590.616,220.53 590.185,216.537C589.429,209.536 589.021,192.801 591.439,191.425C593.515,190.243 609.134,187.425 611.399,186.275C613.892,185.01 612.911,184.207 615.411,177.462C616.739,173.88 616.417,173.766 618.163,170.35C619.705,167.335 619.456,167.231 621.133,164.28C623.696,159.769 623.541,159.003 623.443,158.516C623.111,156.875 612.895,142.343 612.441,140.517C612.198,139.541 611.651,138.931 621.151,129.187C627.199,122.984 630.774,120.444 631.441,120.303C632.328,120.115 633.107,119.949 641.588,125.367C650.478,131.046 650.553,131.079 651.46,131.009C652.558,130.924 659.899,126.084 666.575,123.747C670.484,122.378 670.4,122.159 674.391,121.068C679.068,119.789 679.228,119.212 680.111,114.44C681.507,106.897 681.615,106.935 683.315,99.448C683.907,96.842 685.41,97.078 693.511,96.724C699.702,96.454 710.565,96.56 712.231,97.848C713.255,98.639 712.752,98.946 715.603,110.474C717.027,116.229 715.841,119.392 720.444,120.707C723.933,121.703 723.972,121.55 727.354,122.866C732.292,124.788 732.416,124.481 742.377,129.714C744.773,130.974 744.988,131.63 747.3,130.187C761.468,121.341 763.274,119.476 765.501,120.498C765.933,120.696 773.486,126.701 779.46,133.532C783.533,138.19 783.652,138.871 783.752,139.447C784.192,141.972 779.352,147.581 774.697,155.609C773.11,158.346 772.298,158.544 773.823,161.336C775.423,164.263 775.249,164.339 776.906,167.289C778.422,169.988 781.592,178.179 782.717,182.443C783.582,185.723 783.715,186.193 788.529,187.362C793.485,188.566 793.503,188.416 798.438,189.728C804.545,191.352 805.129,190.741 805.734,192.4C805.903,192.862 805.8,192.881 806.629,198.482C806.959,200.708 806.922,203.412 806.941,204.499Z" style="fill:rgb(148,152,135);"/>
            <path d="M740.103,195.599C740.656,197.743 743.963,210.205 736.76,224.62C727.24,243.674 710.653,247.325 704.513,248.569C696.667,250.158 688.838,247.796 687.534,247.403C685.849,246.895 675.407,244.664 666.411,234.574C665.7,233.777 662.752,230.903 658.891,223.283C658.136,221.792 656,215.005 655.872,214.42C654.563,208.41 654.762,199.46 656.476,194.492C657.747,190.807 658.484,186.482 664.453,178.461C668.286,173.31 676.808,167.14 682.451,165.342C683.245,165.089 689.96,161.762 701.5,162.501C702.962,162.595 705.607,162.296 715.366,165.894C716.883,166.453 726.972,171.174 733.379,180.58C738.475,188.061 739.065,191.61 740.103,195.599Z" style="fill:rgb(37,35,33);"/>
            <path d="M736.916,196.408C737.287,197.909 740.104,206.384 735.485,219.495C735.402,219.729 733.468,224.424 731.862,226.741C729.521,230.121 728.371,232.175 723.428,236.421C714.305,244.257 699.953,247.961 688.545,244.363C687.797,244.127 683.06,243.047 677.44,239.591C666.936,233.134 658.383,220.321 658.256,206.505C658.196,199.997 658.689,198.297 660.853,191.607C664.083,181.624 673.127,173.709 677.461,171.429C680.857,169.642 680.742,169.406 684.369,168.134C687.165,167.153 690.521,165.138 702.473,165.873C706.976,166.15 709.086,167.202 713.44,168.657C718.182,170.242 726.096,175.867 730.224,181.691C735.92,189.727 736.565,194.971 736.916,196.408Z" style="fill:rgb(253,253,252);"/>
        </g>
        <g id="Yellow-gear" serif:id="Yellow gear" transform="matrix(0.463015,0.006654,-0.006654,0.463015,104.062331,199.032742)">
            <path d="M810.057,202.513C810.072,204.779 810.471,208.091 809.031,219.452C808.628,222.631 807.31,222.732 804.512,223.539C802.328,224.169 798.777,224.626 796.441,225.29C787.723,227.77 787.131,226.895 786.347,228.397C785.558,229.907 784.261,235.69 781.966,240.713C781.569,241.58 780.558,244.294 779.798,245.657C776.489,251.592 776.622,251.943 777.365,253.568C778.272,255.55 787.369,269.348 787.631,270.461C787.806,271.205 788.079,272.362 782.567,278.56C773.533,288.716 765.79,294.451 764.511,294.584C762.482,294.795 756.544,290.3 751.485,287.525C749.565,286.472 745.775,283.21 743.684,283.986C742.874,284.287 733.47,289.996 722.412,293.186C719.537,294.015 719.944,295.222 719.134,299.431C717.895,305.868 717.399,305.744 716.131,312.434C715.25,317.085 713.747,316.509 703.485,317.317C696.015,317.905 696.024,317.661 688.538,317.059C680.694,316.428 681.031,315.319 680.968,315.211C680.652,314.669 680.749,314.63 679.134,307.59C676.317,295.308 677.248,294.35 674.545,293.37C670.521,291.911 670.467,292.115 666.462,290.6C658.831,287.712 652.814,283.459 651.499,283.485C651.074,283.493 650.901,283.496 646.79,285.965C646.275,286.274 641.869,289.138 641.442,289.416C632.966,294.926 632.352,294.785 631.477,294.584C629.809,294.2 615.389,281.497 609.567,273.45C607.689,270.854 608.723,270.09 611.13,266.267C619.067,253.662 619.757,252.955 619.555,251.493C619.496,251.067 619.434,250.62 617.186,246.672C615.747,244.145 611.743,233.863 610.809,230.426C609.944,227.238 609.229,227.492 603.558,226.245C599.037,225.25 599.091,225.117 594.571,224.139C588.447,222.813 587.52,222.341 587.093,217.557C586.095,206.372 586.097,206.369 586.856,195.532C587.328,188.776 588.479,188.531 592.534,187.65C598.012,186.461 597.922,186.132 603.407,185.009C609.56,183.749 610.072,183.334 610.625,181.538C611.554,178.519 611.556,178.539 612.603,175.539C613.174,173.906 612.997,173.248 616.673,165.581C618.805,161.132 620.573,160.028 618.955,157.257C616.899,153.736 614.347,150.294 613.425,148.539C612.066,145.951 611.762,146.155 610.315,143.606C608.627,140.633 607.207,139.913 611.189,135.248C611.387,135.015 618.518,126.095 628.295,118.228C631.314,115.799 631.698,115.914 633.752,117.041C637.084,118.87 637.089,118.814 640.349,120.773C648.182,125.478 648.098,125.601 648.779,126.009C648.978,126.128 650.524,127.055 651.489,127.034C653.122,126.999 658.785,122.952 666.435,120.332C669.897,119.146 669.832,118.988 673.352,118.001C677.932,116.717 676.182,114.943 678.6,105.526C680.893,96.597 679.908,95.371 683.468,94.38C685.383,93.847 695.424,92.989 702.506,93.383C713.76,94.01 715.071,94.465 715.902,97.386C716.113,98.126 717.141,103.467 718.433,108.517C720.212,115.475 719.221,116.979 722.415,117.796C734.131,120.793 742.977,126.565 744.393,126.911C746.424,127.408 746.324,126.584 757.218,120.07C758.783,119.134 758.719,119.052 760.318,118.173C763.766,116.277 764.224,115.278 767.322,117.731C769.606,119.539 776.139,124.279 785.443,135.546C787.821,138.426 787.885,139.072 787.921,139.44C788.064,140.882 785.712,144.189 783.63,147.58C781.872,150.443 781.761,150.356 780.079,153.246C779.042,155.029 778.879,154.9 777.841,156.695C776.224,159.493 776.805,159.739 778.25,162.625C779.722,165.565 781.975,169.437 785.361,179.542C786.287,182.307 785.984,183.236 788.373,183.911C793.869,185.465 793.958,185.058 799.447,186.67C803.131,187.752 807.934,187.697 808.768,190.417C808.802,190.525 809.716,196.192 809.82,197.47C809.846,197.787 810.039,202.11 810.057,202.513Z" style="fill:rgb(37,36,33);"/>
            <path d="M806.941,204.499C806.857,211.008 806.923,211.002 806.061,217.437C805.581,221.016 804.015,219.787 795.42,222.212C786.062,224.851 784.007,224.196 783.271,226.417C782.292,229.374 781.873,235.093 774.226,249.345C772.779,252.044 772.71,252.325 774.195,254.706C776.324,258.122 776.323,258.106 778.407,261.559C778.583,261.852 782.391,267.823 782.739,268.367C784.736,271.499 784.071,272.08 779.851,276.804C773.936,283.427 765.993,290.522 764.573,290.816C762.804,291.181 760.222,289.079 758.24,287.926C757.623,287.568 754.018,285.471 750.667,283.227C745.668,279.88 745.101,279.931 744.549,279.981C743.045,280.116 736.357,284.976 727.381,288.131C723.943,289.34 723.991,289.421 720.463,290.353C715.936,291.55 717.58,293.436 715.58,300.527C712.999,309.681 713.602,312.751 711.462,313.387C707.502,314.564 685.857,314.725 684.038,312.951C683.204,312.138 682.654,308.116 681.728,304.439C679.927,297.282 680.079,291.927 677.367,290.82C676.596,290.505 676.525,290.726 667.477,287.575C662.688,285.908 653.243,280.289 652.651,280.11C651.187,279.67 651.046,279.777 645.761,282.901C645.643,282.971 640.85,286.11 640.424,286.39C633.716,290.783 633.236,290.806 632.51,290.842C630.937,290.919 629.165,288.779 628.109,287.947C626.819,286.93 620.381,281.856 613.59,273.423C612.071,271.535 611.791,271.088 614.223,267.333C614.887,266.308 620.938,256.963 622.388,254.435C624.426,250.881 622.452,250.765 618.796,242.39C617.336,239.043 617.236,239.105 616.088,235.638C614.892,232.029 614.535,232.151 613.708,228.449C612.833,224.537 611.917,224.825 605.536,223.364C600.537,222.219 600.607,222.009 595.591,221.024C591.649,220.249 590.616,220.53 590.185,216.537C589.429,209.536 589.021,192.801 591.439,191.425C593.515,190.243 609.134,187.425 611.399,186.275C613.892,185.01 612.911,184.207 615.411,177.462C616.739,173.88 616.417,173.766 618.163,170.35C619.705,167.335 619.456,167.231 621.133,164.28C623.696,159.769 623.541,159.003 623.443,158.516C623.111,156.875 612.895,142.343 612.441,140.517C612.198,139.541 611.651,138.931 621.151,129.187C627.199,122.984 630.774,120.444 631.441,120.303C632.328,120.115 633.107,119.949 641.588,125.367C650.478,131.046 650.553,131.079 651.46,131.009C652.558,130.924 659.899,126.084 666.575,123.747C670.484,122.378 670.4,122.159 674.391,121.068C679.068,119.789 679.228,119.212 680.111,114.44C681.507,106.897 681.615,106.935 683.315,99.448C683.907,96.842 685.41,97.078 693.511,96.724C699.702,96.454 710.565,96.56 712.231,97.848C713.255,98.639 712.752,98.946 715.603,110.474C717.027,116.229 715.841,119.392 720.444,120.707C723.933,121.703 723.972,121.55 727.354,122.866C732.292,124.788 732.416,124.481 742.377,129.714C744.773,130.974 744.988,131.63 747.3,130.187C761.468,121.341 763.274,119.476 765.501,120.498C765.933,120.696 773.486,126.701 779.46,133.532C783.533,138.19 783.652,138.871 783.752,139.447C784.192,141.972 779.352,147.581 774.697,155.609C773.11,158.346 772.298,158.544 773.823,161.336C775.423,164.263 775.249,164.339 776.906,167.289C778.422,169.988 781.592,178.179 782.717,182.443C783.582,185.723 783.715,186.193 788.529,187.362C793.485,188.566 793.503,188.416 798.438,189.728C804.545,191.352 805.129,190.741 805.734,192.4C805.903,192.862 805.8,192.881 806.629,198.482C806.959,200.708 806.922,203.412 806.941,204.499Z" style="fill:rgb(157,150,82);"/>
            <path d="M740.103,195.599C740.656,197.743 743.963,210.205 736.76,224.62C727.24,243.674 710.653,247.325 704.513,248.569C696.667,250.158 688.838,247.796 687.534,247.403C685.849,246.895 675.407,244.664 666.411,234.574C665.7,233.777 662.752,230.903 658.891,223.283C658.136,221.792 656,215.005 655.872,214.42C654.563,208.41 654.762,199.46 656.476,194.492C657.747,190.807 658.484,186.482 664.453,178.461C668.286,173.31 676.808,167.14 682.451,165.342C683.245,165.089 689.96,161.762 701.5,162.501C702.962,162.595 705.607,162.296 715.366,165.894C716.883,166.453 726.972,171.174 733.379,180.58C738.475,188.061 739.065,191.61 740.103,195.599Z" style="fill:rgb(37,35,33);"/>
            <path d="M736.916,196.408C737.287,197.909 740.104,206.384 735.485,219.495C735.402,219.729 733.468,224.424 731.862,226.741C729.521,230.121 728.371,232.175 723.428,236.421C714.305,244.257 699.953,247.961 688.545,244.363C687.797,244.127 683.06,243.047 677.44,239.591C666.936,233.134 658.383,220.321 658.256,206.505C658.196,199.997 658.689,198.297 660.853,191.607C664.083,181.624 673.127,173.709 677.461,171.429C680.857,169.642 680.742,169.406 684.369,168.134C687.165,167.153 690.521,165.138 702.473,165.873C706.976,166.15 709.086,167.202 713.44,168.657C718.182,170.242 726.096,175.867 730.224,181.691C735.92,189.727 736.565,194.971 736.916,196.408Z" style="fill:rgb(253,253,252);"/>
        </g>
    </g>
    <g id="Leaves">
        <g id="Green">
            <path d="M858.289,487.376C874.237,459.533 898.435,436.273 934.822,435.147C979.934,433.753 1007.922,443.039 1029.531,455.189C1036.016,458.836 1042.333,464.939 1047.959,468.89C1034.265,491.108 999.668,532.683 940.142,539.53C911.996,542.768 887.315,532.281 868.412,515.295C866.035,513.159 863.697,510.916 861.392,508.578L858.289,487.376Z" style="fill:rgb(75,124,69);stroke:black;stroke-width:4px;"/>
            <path d="M766.607,252.385C765.102,225.418 774.687,199.148 796.233,178.05C818.282,156.46 856.619,145.801 906.099,144.992C903.235,174.738 900.622,203.006 878.109,230.3C858.496,254.078 828.976,271.857 781.151,265.851L766.607,252.385Z" style="fill:rgb(75,124,69);stroke:black;stroke-width:4px;"/>
            <path d="M570.023,226.727C569.185,206.661 573.015,188.509 584.565,176.349C602.85,157.098 625.164,150.201 648.701,147.058C650.156,154.621 650.928,185.291 637.157,209.5C627.96,225.667 608.105,237.385 581.405,237.966L570.023,226.727Z" style="fill:rgb(75,124,69);stroke:black;stroke-width:4px;"/>
            <path d="M541.2,198.078C574.41,170.755 581.978,146.916 581.341,121.564C580.091,71.827 557.923,47.679 529.265,14.082C497.057,46.72 475.565,84.177 477.414,121.014C478.836,149.352 486.56,173.394 517.269,197.183L541.2,198.078Z" style="fill:rgb(75,124,69);stroke:black;stroke-width:4px;"/>
            <path d="M292.936,251.413C292.201,205.411 274.312,184.54 253.574,169.933C225.316,150.029 195.144,144.241 153.758,147.14C153.572,180.04 166.961,219.191 190.566,241.293C212.654,261.976 243.04,272.48 279.43,267.215L292.936,251.413Z" style="fill:rgb(75,124,69);stroke:black;stroke-width:4px;"/>
            <path d="M295.445,303.744C282.679,293.174 266.238,283.432 249.01,285.605C222.702,288.924 207.013,300.804 195.631,317.114C208.612,332.251 225.25,340.19 246.523,341.783C267.134,343.326 283.789,332.933 295.134,319.602L295.445,303.744Z" style="fill:rgb(75,124,69);stroke:black;stroke-width:4px;"/>
            <path d="M202.601,488.053C185.62,456.548 152.147,435.978 118.71,434.609C75.367,432.835 42.915,446.088 13.2,469.472C28.534,495.739 56.626,520.566 89.248,532.231C133.145,547.928 169.719,535.516 198.73,509.713L202.601,488.053Z" style="fill:rgb(75,124,69);stroke:black;stroke-width:4px;"/>
        </g>
        <g id="Swamp">
            <path d="M862.844,281.534C869.93,263.748 883.133,254.042 898.396,248.137C918.185,240.48 937.391,244.777 956.329,254.574C951.948,270.277 940.463,285.34 912.615,292.058C894.288,296.48 871.816,288.151 862.844,281.534Z" style="fill:rgb(169,160,91);stroke:black;stroke-width:4px;"/>
            <path d="M940.254,372.818C958.916,356.413 979.333,355.209 1000.296,358.741C998.351,373.581 991.912,387.467 979.612,400.11C968.496,411.535 946.438,415.834 923.691,412.693C923.214,412.627 921.77,412.248 921.293,412.176C922.062,397.074 927.869,383.704 940.254,372.818Z" style="fill:rgb(139,137,99);stroke:black;stroke-width:4px;"/>
            <path d="M765.398,303.631C774.619,293.107 788.969,285.686 806.865,286.451C830.183,287.447 848.719,297.744 862.844,316.616C852.577,329.825 837.063,339.939 806.865,341.394C787.121,342.345 773.553,330.726 765.297,319.558L765.398,303.631Z" style="fill:rgb(160,153,85);stroke:black;stroke-width:4px;"/>
            <path d="M781.982,154.705C778.983,142.353 778.129,124.138 784.252,113.645C795.471,94.419 805.61,91.682 818.229,87.843C821.676,100.927 823.833,112.248 820.146,122.883C813.749,141.333 800.001,150.667 781.982,154.705Z" style="fill:rgb(160,153,85);stroke:black;stroke-width:4px;"/>
            <path d="M612.96,124.387C633.921,115.751 643.642,102.736 647.84,91.432C655.084,71.929 651.881,53.398 643.933,35.755C625.543,43.307 612.784,54.922 605.861,74.56C599.517,92.554 604.746,112.637 612.96,124.387Z" style="fill:rgb(160,153,85);stroke:black;stroke-width:4px;"/>
            <path d="M915.371,563.873C930.042,558.124 944.657,558.368 957.645,564.018C968.874,568.903 980.492,585.577 983.591,595.891C970.044,602.698 950.22,603.055 940.503,596.559C915.492,579.84 915.552,566.501 915.371,563.873Z" style="fill:rgb(160,153,85);stroke:black;stroke-width:4px;"/>
            <path d="M807.732,543.711C809.965,561.018 809.667,577.02 831.25,598.839C845.354,613.096 873.711,624.925 908.637,622.42C908.98,603.581 901.577,577.121 886.346,557.532C871.706,538.702 849.083,529.894 821.01,531.214L807.732,543.711Z" style="fill:rgb(160,153,85);stroke:black;stroke-width:4px;"/>
            <path d="M826.98,628.396C826.825,633.085 823.607,649.506 831.988,667.896C837.78,680.605 853.869,690.632 875.503,692.056C877.174,680.274 876.282,664.714 868.435,652.969C857.438,636.508 843.227,631.076 826.98,628.396Z" style="fill:rgb(160,153,85);stroke:black;stroke-width:4px;"/>
            <path d="M490.257,227.107C491.069,204.988 485.664,185.226 474.165,174.46C454.995,156.511 433.706,149.806 411.431,148.338C409.631,172.951 410.747,196.445 426.423,214.355C440.046,229.919 457.034,239.051 477.303,239.286L490.257,227.107Z" style="fill:rgb(160,153,85);stroke:black;stroke-width:4px;"/>
            <path d="M416.147,34.807C434.156,45.273 448.045,57.704 453.298,76.57C457.591,91.989 455.236,109.519 446.814,124.074C432.727,119.142 413.849,104.573 409.15,87.57C402.618,63.929 412.525,42.279 416.147,34.807Z" style="fill:rgb(130,133,100);stroke:black;stroke-width:4px;"/>
            <path d="M276.334,154.206C279.158,143.009 282.054,125.352 275.227,114.35C264.909,97.721 253.071,91.441 239.8,87.464C236.925,101.445 233.863,116.252 242.173,131.906C248.08,143.032 261.525,153.117 276.334,154.206Z" style="fill:rgb(162,153,92);stroke:black;stroke-width:4px;"/>
            <path d="M195.631,281.822C191.216,268.862 177.521,254.336 163.273,248.926C143.361,241.366 121.623,244.51 102.542,254.938C103.76,259.434 111.304,276.525 135.826,288.274C153.166,296.582 178.276,294.292 195.631,281.822Z" style="fill:rgb(162,153,92);stroke:black;stroke-width:4px;"/>
            <path d="M138.093,411.148C137.819,399.427 132.163,384.598 119.177,372.928C102.265,357.73 82.796,355.043 59.32,359.194C61.672,373.14 66.019,386.754 78.754,398.969C93.645,413.253 114.925,416.608 138.093,411.148Z" style="fill:rgb(162,153,92);stroke:black;stroke-width:4px;"/>
            <path d="M239.004,531.4C219.629,528.893 199.827,533.755 179.379,549.765C161.861,563.481 152.288,588.149 150.788,621.984C180.585,624.512 206.9,618.962 226.064,601.338C243.862,584.971 250.939,565.387 252.634,544.189L239.004,531.4Z" style="fill:rgb(160,153,85);stroke:black;stroke-width:4px;"/>
            <path d="M74.938,595.889C79.741,582.684 87.731,572.527 98.706,565.227C113.219,555.574 128.774,557.257 143.808,563.183C142.671,573.041 137.815,583.364 121.638,595.102C110.826,602.947 89.959,602.306 74.938,595.889Z" style="fill:rgb(141,138,97);stroke:black;stroke-width:4px;"/>
            <path d="M182.598,691.228C182.149,674.764 185.68,657.115 193.215,648.704C205.508,634.98 217.744,631.515 232.443,628.961C233.98,642.445 234.536,657.752 224.801,670.051C211.855,686.407 198.497,690.975 182.598,691.228Z" style="fill:rgb(161,153,83);stroke:black;stroke-width:4px;"/>
        </g>
        <g id="Gray">
            <path d="M806.865,444.871C804.938,414.734 810.597,389.696 826.925,372.238C848.484,349.188 872.142,339.684 906.98,337.574C912.572,370.844 905.72,397.052 892.413,419.595C880.223,440.246 857.4,456.243 822.747,456.224L806.865,444.871Z" style="fill:rgb(131,145,120);stroke:black;stroke-width:4px;"/>
            <path d="M726.02,239.982C753.982,216.145 763.829,190.687 762.211,165.076C759.747,126.091 740.974,97.507 715.805,72.294C689.85,98.307 669.539,127.183 669.276,166.229C669.073,196.506 681.807,221.341 706.408,240.841L726.02,239.982Z" style="fill:rgb(131,145,120);stroke:black;stroke-width:4px;"/>
            <path d="M352.383,241.293C389.97,211.269 389.29,175.075 389.284,165.008C389.259,123.193 363.006,91.14 344.074,72.477C319.21,95.999 299.599,123.055 297.956,162.199C296.836,188.89 303.751,214.086 332.671,239.286L352.383,241.293Z" style="fill:rgb(131,145,120);stroke:black;stroke-width:4px;"/>
            <path d="M237.781,457.389C207.852,455.694 186.618,446.565 170.067,424.209C151.163,398.677 150.916,367.352 151.878,337.564C175.725,338.822 198.8,342.082 230.593,370.426C243.421,381.863 253.983,400.195 253.614,446.253L237.781,457.389Z" style="fill:rgb(131,145,120);stroke:black;stroke-width:4px;"/>
        </g>
    </g>
    <g id="Clock">
        <g id="Frame">
            <g transform="matrix(1.209543,0,0,1.219663,-122.408882,-154.258903)">
                <circle cx="538.971" cy="563.148" r="139.104" style="fill:rgb(243,244,237);"/>
            </g>
            <g transform="matrix(1.240775,0,0,1.240775,-146.521893,-154.265991)">
                <path d="M544.838,406.817C625.812,406.817 691.553,472.558 691.553,553.532C691.553,634.506 625.812,700.246 544.838,700.246C463.864,700.246 398.123,634.506 398.123,553.532C398.123,472.558 463.864,406.817 544.838,406.817ZM544.838,416.835C620.283,416.835 681.535,478.087 681.535,553.532C681.535,628.977 620.283,690.229 544.838,690.229C469.393,690.229 408.141,628.977 408.141,553.532C408.141,478.087 469.393,416.835 544.838,416.835Z" style="fill:rgb(83,85,74);stroke:black;stroke-width:3.25px;"/>
            </g>
            <g transform="matrix(1.745375,0,0,1.745375,-475.358475,-516.528894)">
                <path d="M575.726,487.562C637.905,487.562 688.387,538.044 688.387,600.223C688.387,662.402 637.905,712.884 575.726,712.884C513.547,712.884 463.066,662.402 463.066,600.223C463.066,538.044 513.547,487.562 575.726,487.562ZM575.726,496.76C632.829,496.76 679.189,543.12 679.189,600.223C679.189,657.326 632.829,703.686 575.726,703.686C518.623,703.686 472.263,657.326 472.263,600.223C472.263,543.12 518.623,496.76 575.726,496.76Z" style="fill:rgb(133,136,117);stroke:black;stroke-width:2.29px;"/>
            </g>
        </g>
        <g id="Numbers">
            <g id="Twelve" transform="matrix(-0.969889,0.259881,-0.259881,-0.969889,1639.183601,819.127389)">
                <path d="M946.396,704.509L937.173,702.038L940.291,700.087L950.081,663.55L948.258,660.666L957.254,663.076L954.399,664.725L944.581,701.367L946.396,704.509ZM946.396,704.509L949.514,702.558L959.304,666.021L957.481,663.137L966.477,665.548L963.622,667.196L953.804,703.838L955.619,706.981L946.396,704.509ZM972.987,681.334L978.777,671.305L977.632,668.537L986.321,670.865L982.948,672.423L972.926,690.098L972.794,709.204L974.836,712.13L966.327,709.85L968.587,708.077L968.667,697.61L963.677,706.41L964.747,709.427L955.838,707.04L959.201,705.211L968.734,688.699L968.883,669.148L966.704,665.609L975.394,667.937L973.063,670.268L972.987,681.334Z" style="fill:rgb(63,62,57);"/>
            </g>
            <g id="Eleven" transform="matrix(-0.710008,0.710008,-0.710008,-0.710008,1635.856187,222.253473)">
                <path d="M972.987,681.334L978.777,671.305L977.632,668.537L986.321,670.865L982.948,672.423L972.926,690.098L972.794,709.204L974.836,712.13L966.327,709.85L968.587,708.077L968.667,697.61L963.677,706.41L964.747,709.427L955.838,707.04L959.201,705.211L968.734,688.699L968.883,669.148L966.704,665.609L975.394,667.937L973.063,670.268L972.987,681.334ZM957.481,663.137L966.477,665.548L963.622,667.196L953.804,703.838L955.619,706.981L946.396,704.509L949.514,702.558L959.304,666.021L957.481,663.137Z" style="fill:rgb(63,62,57);"/>
            </g>
            <g id="Ten" transform="matrix(-0.259881,0.969889,-0.969889,-0.259881,1336.063256,-294.201475)">
                <path d="M972.987,681.334L978.777,671.305L977.632,668.537L986.321,670.865L982.948,672.423L972.926,690.098L972.794,709.204L974.836,712.13L966.327,709.85L968.587,708.077L968.667,697.61L963.677,706.41L964.747,709.427L955.838,707.04L959.201,705.211L968.734,688.699L968.883,669.148L966.704,665.609L975.394,667.937L973.063,670.268L972.987,681.334Z" style="fill:rgb(63,62,57);"/>
            </g>
            <g id="Nine" transform="matrix(-0.259881,-0.969889,0.969889,-0.259881,-17.033978,1650.037689)">
                <path d="M972.987,681.334L978.777,671.305L977.632,668.537L986.321,670.865L982.948,672.423L972.926,690.098L972.794,709.204L974.836,712.13L966.327,709.85L968.587,708.077L968.667,697.61L963.677,706.41L964.747,709.427L955.838,707.04L959.201,705.211L968.734,688.699L968.883,669.148L966.704,665.609L975.394,667.937L973.063,670.268L972.987,681.334ZM957.481,663.137L966.477,665.548L963.622,667.196L953.804,703.838L955.619,706.981L946.396,704.509L949.514,702.558L959.304,666.021L957.481,663.137Z" style="fill:rgb(63,62,57);"/>
            </g>
            <g id="Eight" transform="matrix(0.502052,0.869579,-0.869579,0.502052,527.903028,-594.114007)">
                <path d="M956.532,710.768L959.039,708.077L959.039,670.251L956.532,667.937L965.845,667.937L963.514,670.268L963.514,708.202L966.081,710.768L956.532,710.768ZM966.081,710.768L968.587,708.077L968.587,670.251L966.081,667.937L975.394,667.937L973.063,670.268L973.063,708.202L975.629,710.768L966.081,710.768ZM975.629,710.768L979.073,708.442L988.508,667.937L997.943,708.442L1001.387,710.768L994.895,710.768L988.508,683.348L982.121,710.768L975.629,710.768ZM956.532,710.768L946.984,710.768L949.49,708.077L949.49,670.251L946.984,667.937L956.297,667.937L953.966,670.268L953.966,708.202L956.532,710.768Z" style="fill:rgb(63,62,57);"/>
            </g>
            <g id="Seven" transform="matrix(0.869579,0.502052,-0.502052,0.869579,-47.492579,-448.69708)">
                <path d="M975.629,710.768L978.136,708.077L978.136,670.251L975.629,667.937L984.942,667.937L982.611,670.268L982.611,708.202L985.177,710.768L975.629,710.768ZM985.177,710.768L988.621,708.442L998.056,667.937L1007.491,708.442L1010.935,710.768L1004.443,710.768L998.056,683.348L991.669,710.768L985.177,710.768ZM975.629,710.768L966.081,710.768L968.587,708.077L968.587,670.251L966.081,667.937L975.394,667.937L973.063,670.268L973.063,708.202L975.629,710.768Z" style="fill:rgb(63,62,57);"/>
            </g>
            <g id="Six" transform="matrix(1.004103,0,0,1.004103,-458.270537,-28.643394)">
                <path d="M975.629,710.768L966.081,710.768L968.587,708.077L968.587,670.251L966.081,667.937L975.394,667.937L973.063,670.268L973.063,708.202L975.629,710.768ZM975.629,710.768L979.073,708.442L988.508,667.937L997.943,708.442L1001.387,710.768L994.895,710.768L988.508,683.348L982.121,710.768L975.629,710.768Z" style="fill:rgb(63,62,57);"/>
            </g>
            <g id="Five" transform="matrix(8.712685,-5.030271,0.8494,1.471204,-8563.394843,4424.42287)">
                <path d="M975.394,782.418L974.746,782.418L975.09,781.043L976.032,757.102L976.973,781.043L977.317,782.418L976.669,782.418L976.032,766.211L975.394,782.418Z" style="fill:rgb(63,62,57);"/>
            </g>
            <g id="Four" transform="matrix(-0.502052,0.869579,-0.869579,-0.502052,1735.607927,86.761275)">
                <path d="M975.629,710.768L966.081,710.768L968.587,708.077L968.587,670.251L966.081,667.937L975.394,667.937L973.063,670.268L973.063,708.202L975.629,710.768ZM985.177,710.768L987.684,708.077L987.684,670.251L985.177,667.937L994.49,667.937L992.16,670.268L992.16,708.202L994.726,710.768L985.177,710.768ZM975.629,710.768L978.136,708.077L978.136,670.251L975.629,667.937L984.942,667.937L982.611,670.268L982.611,708.202L985.177,710.768L975.629,710.768ZM994.726,710.768L997.232,708.077L997.232,670.251L994.726,667.937L1004.039,667.937L1001.708,670.268L1001.708,708.202L1004.274,710.768L994.726,710.768Z" style="fill:rgb(63,62,57);"/>
            </g>
            <g id="Three" transform="matrix(0,1.004103,-1.004103,0,1351.849927,-450.512537)">
                <path d="M975.629,710.768L966.081,710.768L968.587,708.077L968.587,670.251L966.081,667.937L975.394,667.937L973.063,670.268L973.063,708.202L975.629,710.768ZM985.177,710.768L987.684,708.077L987.684,670.251L985.177,667.937L994.49,667.937L992.16,670.268L992.16,708.202L994.726,710.768L985.177,710.768ZM975.629,710.768L978.136,708.077L978.136,670.251L975.629,667.937L984.942,667.937L982.611,670.268L982.611,708.202L985.177,710.768L975.629,710.768Z" style="fill:rgb(63,62,57);"/>
            </g>
            <g id="Two" transform="matrix(0.502052,0.869579,-0.869579,0.502052,752.747488,-727.026485)">
                <path d="M975.629,710.768L978.136,708.077L978.136,670.251L975.629,667.937L984.942,667.937L982.611,670.268L982.611,708.202L985.177,710.768L975.629,710.768ZM975.629,710.768L966.081,710.768L968.587,708.077L968.587,670.251L966.081,667.937L975.394,667.937L973.063,670.268L973.063,708.202L975.629,710.768Z" style="fill:rgb(63,62,57);"/>
            </g>
            <g id="One" transform="matrix(0.869122,0.502843,-0.502843,0.869122,97.774448,-668.372709)">
                <path d="M966.081,667.937L968.587,670.251L968.587,708.077L966.081,710.768L975.629,710.768L973.063,708.202L973.063,670.268L975.394,667.937L966.081,667.937Z" style="fill:rgb(63,62,57);"/>
            </g>
        </g>
        <g id="Hour-hand" serif:id="Hour hand" transform="matrix(0.955904,0,0,0.955904,17.167206,24.504336)">
            <path d="M519.593,528.001C509.243,522.458 499.088,516.001 489.407,507.338C472.825,491.288 463.928,478.575 455.016,466.134C471.167,472.731 488.411,480.416 503.686,491.836C513.018,498.955 521.238,507.372 527.96,517.537C527.013,518.212 531.945,515.883 535.966,515.883C545.413,515.883 553.082,523.552 553.082,532.999C553.082,542.445 545.413,550.115 535.966,550.115C526.52,550.115 518.85,542.445 518.85,532.999C518.85,531.26 519.11,529.582 519.593,528.001Z" style="fill:rgb(83,85,74);stroke:black;stroke-width:3.14px;"/>
        </g>
        <g id="Minute-hand" serif:id="Minute hand" transform="matrix(0.955904,0,0,0.955904,17.167206,24.504336)">
            <path d="M552.162,526.634C551.689,525.834 553.082,529.879 553.082,532.999C553.082,542.445 545.413,550.115 535.966,550.115C526.52,550.115 518.85,542.445 518.85,532.999C518.85,523.552 526.52,515.883 535.966,515.883C540.452,515.883 546.443,519.413 545.903,519.063C560.829,503.611 574.403,490.638 585.736,481.775C617.951,456.579 637.251,447.83 659.208,434.895C659.208,434.895 616.768,479.907 598.566,494.551C585.726,504.88 552.162,526.634 552.162,526.634Z" style="fill:rgb(83,85,74);stroke:black;stroke-width:3.14px;"/>
        </g>
    </g>
    <g id="Branches">
        <path d="M633.877,364.012C651.288,342.465 677.944,318.139 692.109,307.298C708.259,294.938 715.159,200.041 715.082,166.481C721.706,206.793 723.583,247.105 723.374,287.417C762.659,254.942 801.511,227.669 840.307,201.075L738.686,305.714C763.428,303.387 784.678,307.368 805.999,312.862C760.693,316.627 729.835,321.894 717.9,330.819C697.519,346.06 681.825,371.099 670.326,392.152L633.877,364.012Z" style="fill:rgb(133,136,117);stroke:black;stroke-width:3px;"/>
        <path d="M723.041,498.675C740.329,497.383 760.895,487.716 785.045,468.889C809.493,449.829 833.467,424.102 855.781,398.864C838.01,432.636 815.014,465.102 785.045,495.824L954.734,485.315C898.454,500.198 846.483,511.933 802.891,517.544C804.689,518.215 810.828,524.015 855.781,575.687C815.325,544.177 785.045,527.347 776.153,526.21C762.229,524.43 744.466,533.312 726.135,543.776C727.274,528.019 726.293,512.968 723.041,498.675Z" style="fill:rgb(133,136,117);stroke:black;stroke-width:3px;"/>
        <path d="M556.061,336.893C549.073,317.374 548.532,298.185 554.231,279.316C563.948,247.145 588.922,223.509 608.209,198.38C586.373,214.52 564.579,231.91 543.069,257.847C539.07,201.263 534.3,149.299 529.5,97.523C525.837,148.252 522.781,197.161 515.799,257.847C497.643,235.72 476.298,216.782 452.582,200.214C474.007,224.4 494.046,251.754 506.911,286.034C510.38,295.277 507.819,318.029 504.929,336.893C521.973,333.107 539.017,332.951 556.061,336.893Z" style="fill:rgb(133,136,117);stroke:black;stroke-width:3px;"/>
        <path d="M425.746,364.116C397.078,325.273 378.67,320.25 369.113,310.006C351.957,291.618 346.335,240.949 344.979,166.131C337.688,206.451 332.993,246.971 336.402,288.115C272.975,236.657 248.172,220.925 218.742,200.915L321.583,306.322C297.146,303.905 274.253,308.052 251.509,312.836C285.754,315.195 319.446,318.232 336.402,328.627C352.763,338.656 370.076,353.412 389.091,393.766C400.57,382.158 412.65,371.951 425.746,364.116Z" style="fill:rgb(133,136,117);stroke:black;stroke-width:3px;"/>
        <path d="M335.668,498.065C314.665,496.152 299.559,489.152 284.447,477.223C256.298,455.004 229.233,426.099 204.763,398.595C223.515,432.909 244.762,466.629 275.606,498.065C156.898,487.664 142.387,488.745 100.993,484.76L257.171,517.775C231.995,538.734 216.706,557.545 204.763,575.627C231.773,550.431 270.307,526.097 286.199,526.097C297.04,526.097 309.885,531.625 332.864,543.611L335.668,498.065Z" style="fill:rgb(133,136,117);stroke:black;stroke-width:3px;"/>
    </g>
    <g id="Stem" transform="matrix(-1,0,0,1,1054.475339,0)">
        <path d="M527.963,950.004C545.298,889.158 598.222,876.249 659.737,877.63C688.617,878.278 723.715,884.102 780.163,902.596C807.352,911.504 837.056,905.501 862.13,908.76L886.83,934.717L907.624,934.717L871.343,892.497C846.156,892.473 819.214,890.787 780.163,877.63C734.297,862.176 689.199,851.538 650.215,850.487C607.853,830.136 591.188,785.341 607.029,709.626C583.936,719.557 558.192,726.307 528,727.72L526.475,727.72C496.283,726.307 470.539,719.557 447.446,709.626C463.287,785.341 446.623,830.136 404.261,850.487C365.276,851.538 320.178,862.176 274.312,877.63C235.261,890.787 208.32,892.473 183.132,892.497L146.852,934.717L167.645,934.717L192.346,908.76C217.419,905.501 247.123,917.668 274.312,908.76C330.761,890.266 375.381,878.278 404.261,877.63C465.776,876.249 509.177,889.158 526.513,950.004L526.475,955.588C526.722,954.593 526.977,953.607 527.238,952.63C527.499,953.607 527.753,954.593 528,955.588L527.963,950.004Z" style="fill:rgb(132,136,119);stroke:black;stroke-width:3px;"/>
    </g>
    <g id="Pages">
        <g transform="matrix(1,0,0,1,0,2.545599)">
            <path d="M526.475,954.462C511.964,888.975 464.02,865.647 400.262,864.177C365.546,863.377 285.521,888.644 277.054,892.176C268.928,895.566 215.102,905.919 191.75,906.34L165.729,934.029C165.729,934.029 234.607,928.742 266.797,917.958C343.759,892.176 392.004,892.176 392.004,892.176C438.845,890.242 484.755,898.786 526.475,954.462Z" style="fill:white;stroke:black;stroke-width:3px;"/>
        </g>
        <g transform="matrix(-1,0,0,1,1054.475339,2.545599)">
            <path d="M526.475,954.462C511.964,888.975 464.02,865.647 400.262,864.177C365.546,863.377 285.521,888.644 277.054,892.176C268.928,895.566 215.102,905.919 191.75,906.34L165.729,934.029C165.729,934.029 234.607,928.742 266.797,917.958C343.759,892.176 392.004,892.176 392.004,892.176C438.845,890.242 484.755,898.786 526.475,954.462Z" style="fill:white;stroke:black;stroke-width:3px;"/>
        </g>
    </g>
    <g id="Root">
        <rect x="207.936" y="957.008" width="672.145" height="40.725" style="fill:rgb(132,136,119);stroke:black;stroke-width:3px;"/>
        <path d="M528,1032.074C504.058,1032.074 484.848,1026.657 470.657,1007.701L103.62,1007.701C93.717,1001.536 93.845,995.175 103.62,988.624L477.705,988.624C469.948,962.824 372.42,941.601 285.525,973.347C241.95,989.266 170.421,987.018 120.929,984.739L146.716,934.225C178.526,939.47 232.445,930.813 272.78,917.821C311.813,905.248 362.5,890.615 397.872,892.696C443.925,895.407 488.818,900.967 528,956.832C567.182,900.967 612.075,895.407 658.128,892.696C693.5,890.615 744.187,905.248 783.22,917.821C823.555,930.813 877.474,939.47 909.284,934.225L935.071,984.739C885.579,987.018 814.05,989.266 770.475,973.347C683.58,941.601 586.052,962.824 578.295,988.624L952.38,988.624C962.155,995.175 962.283,1001.536 952.38,1007.701L585.343,1007.701C571.152,1026.657 551.942,1032.074 528,1032.074Z" style="fill:rgb(101,140,155);stroke:black;stroke-width:3px;"/>
    </g>
</svg>
