<svg width="292" height="292" viewBox="0 0 292 292" fill="none" xmlns="http://www.w3.org/2000/svg">
<path opacity="0.987" fill-rule="evenodd" clip-rule="evenodd" d="M131.564 19.3633C144.796 17.8851 152.625 17.8851 166.841 19.3633C192.007 23.0881 215.336 34.7204 233.454 52.5783C221.21 64.1513 209.128 75.8933 197.209 87.8008C174.385 68.4558 148.908 63.9907 120.778 74.4053C100.144 83.8953 85.775 99.274 77.672 120.541C64.4305 110.683 51.3616 100.596 38.471 90.2828C37.5752 89.8113 36.552 89.6386 35.551 89.7901C56.0275 50.3092 88.0258 26.8276 131.546 19.3451" fill="#F44336"/>
<path opacity="0.997" fill-rule="evenodd" clip-rule="evenodd" d="M35.5145 89.7901C36.5487 89.632 37.5281 89.7962 38.4527 90.2829C51.3433 100.596 64.4123 110.683 77.6537 120.541C75.5701 128.828 74.2565 137.289 73.73 145.818C74.1802 154.067 75.4881 162.164 77.6537 170.108L36.5 202.867C18.5785 165.418 18.25 127.726 35.5145 89.7901Z" fill="#FFC107"/>
<path opacity="0.999" fill-rule="evenodd" clip-rule="evenodd" d="M231.501 242.543C218.687 231.242 205.272 220.641 191.315 210.788C205.306 200.908 213.799 187.355 216.792 170.127H148.226V122.512C187.768 122.184 227.292 122.519 266.797 123.516C274.291 164.214 265.635 200.908 240.827 233.6C237.877 236.736 234.752 239.721 231.501 242.543Z" fill="#448AFF"/>
<path opacity="0.993" fill-rule="evenodd" clip-rule="evenodd" d="M77.6538 170.126C92.6188 207.32 120.055 224.682 159.961 222.212C171.164 220.915 181.904 217.002 191.315 210.787C205.282 220.667 218.678 231.252 231.501 242.542C211.183 260.801 185.276 271.634 158.008 273.275C151.813 273.771 145.589 273.771 139.394 273.275C92.9412 267.8 58.6433 244.331 36.5 202.867L77.6538 170.126Z" fill="#43A047"/>
</svg>
